<svg id="Group_2495" data-name="Group 2495" xmlns="http://www.w3.org/2000/svg" width="50" height="50" viewBox="0 0 50 50">
  <circle id="Ellipse_78" data-name="Ellipse 78" cx="25" cy="25" r="25" transform="translate(0)" fill="#d10a11"/>
  <g id="Group_509" data-name="Group 509" transform="translate(15.715 11.428)">
    <path id="Path_3777" data-name="Path 3777" d="M-459.724,284.753q-.825-.8-1.651-1.607c-1.143-1.116-2.282-2.236-3.431-3.346a.465.465,0,0,1-.149-.476q.883-4.71,1.758-9.422.718-3.859,1.436-7.717c.012-.065.036-.128.06-.207h4.068l.367,1.974c.485,2.61.975,5.219,1.453,7.83.379,2.07.744,4.144,1.115,6.216.085.476.177.951.252,1.429a.359.359,0,0,1-.069.274q-2.553,2.509-5.119,5.005A.439.439,0,0,1-459.724,284.753Z" transform="translate(464.968 -256.182)" fill="#febaba"/>
    <path id="Path_3778" data-name="Path 3778" d="M-287.856,314.25a1.206,1.206,0,0,0,.148.241q3.413,3.421,6.835,6.833a.6.6,0,0,1,.191.5c-.026.607-.026,1.216-.039,1.824,0,.121-.018.242-.029.382-.786,0-1.545,0-2.3-.006a.408.408,0,0,1-.237-.13q-1.732-1.695-3.455-3.4a.586.586,0,0,1-.166-.286q-.524-2.881-1.033-5.764a.739.739,0,0,1,0-.128Z" transform="translate(298.048 -305.471)" fill="#febaba"/>
    <path id="Path_3779" data-name="Path 3779" d="M-437.183,160.4h7.425c-.026.081-.044.158-.075.231-.44,1.058-.885,2.114-1.319,3.174a.3.3,0,0,1-.327.233c-1.33-.008-2.66-.006-3.99,0-.144,0-.242-.018-.307-.177-.447-1.1-.906-2.187-1.36-3.281A1.457,1.457,0,0,1-437.183,160.4Z" transform="translate(438.768 -160.4)" fill="#febaba"/>
  </g>
</svg>
