<svg xmlns="http://www.w3.org/2000/svg" width="50" height="50" viewBox="0 0 50 50">
  <g id="Group_2492" data-name="Group 2492" transform="translate(-224 -1807)">
    <circle id="Ellipse_76" data-name="Ellipse 76" cx="25" cy="25" r="25" transform="translate(224 1807)" fill="#d10a11"/>
    <g id="Group_507" data-name="Group 507" transform="translate(235.429 1818.43)">
      <path id="Path_3808" data-name="Path 3808" d="M-359.174,301.471h2c0,1.139.014,2.245,0,3.35-.019,1.189.4,2.146,1.7,2.115,1.265-.03,1.693-.99,1.675-2.173-.016-1.032,0-2.063,0-3.258h5.181c.1-.316.167-.488.206-.666.193-.891.093-2.291.617-2.586,1.96-1.1,3.865-2.862,6.487-1.421,2.2,1.208,3.242,3.769,2.445,6.8a8.822,8.822,0,0,1-6.712,6.564c-.181.049-.358.11-.659.2,0,.85.033,1.681-.007,2.508a2.686,2.686,0,0,1-2.868,2.887q-5.759.089-11.52,0a2.66,2.66,0,0,1-2.843-2.911c-.034-4.921-.012-9.843-.012-14.95l2,.658v9.22q0,1.92,0,3.84c0,.851-.059,1.854,1.114,1.876,1.292.025,1.2-1.055,1.2-1.941.012-2.806.006-5.613.006-8.419C-359.174,302.636-359.174,302.108-359.174,301.471Zm13.106,5.8a5.62,5.62,0,0,0,4.682-5.064c.15-1.71-.364-2.693-1.527-2.919a2.488,2.488,0,0,0-3.1,2.169A51.913,51.913,0,0,0-346.068,307.267Z" transform="translate(365.008 -287.267)" fill="#febaba"/>
      <path id="Path_3809" data-name="Path 3809" d="M-348.527,270.981c.009,3.113-3.255,5.231-6.438,4.255a8.258,8.258,0,0,0-2.221-.079c-.095,0-.189.064-.285.07a63.172,63.172,0,0,1-6.928.4,4.35,4.35,0,0,1-4.2-4.318c.06-2.235,1.99-3.973,4.535-4.173a4.619,4.619,0,0,0,1.772-.528,6.608,6.608,0,0,1,5.95-.258,3.805,3.805,0,0,0,1.9.248C-351.238,266.137-348.535,268.105-348.527,270.981Zm-14.821-1.847c-1.9-.211-3.256.719-3.394,2.089a2.3,2.3,0,0,0,2.363,2.484c2.243-.278,4.481-.056,6.7-.32a.969.969,0,0,0,.409-.16,2.052,2.052,0,0,1,2.447.032,3.058,3.058,0,0,0,3.878-.7,2.267,2.267,0,0,0,.11-2.986,3.348,3.348,0,0,0-3.717-1.027,2.923,2.923,0,0,1-1.98-.184,4.707,4.707,0,0,0-5.153.06A11.785,11.785,0,0,1-363.348,269.134Z" transform="translate(368.598 -265.767)" fill="#febaba"/>
    </g>
  </g>
</svg>
