<svg id="Group_2484" data-name="Group 2484" xmlns="http://www.w3.org/2000/svg" width="50" height="50" viewBox="0 0 50 50">
  <circle id="Ellipse_71" data-name="Ellipse 71" cx="25" cy="25" r="25" fill="#d10a11"/>
  <g id="Group_500" data-name="Group 500" transform="translate(11.427 11.428)">
    <path id="Path_3794" data-name="Path 3794" d="M-794.214,211.693c-2.623,0-5.245,0-7.868,0a3.99,3.99,0,0,1-3.961-3.074c-.2-.867-.27-1.763-.39-2.647q-.351-2.595-.692-5.191c-.227-1.711-.462-3.421-.677-5.133a11.787,11.787,0,0,1-.177-2.1,3.743,3.743,0,0,1,2.393-3.412,5.367,5.367,0,0,0,2.477-2.13,9.978,9.978,0,0,1,7.546-4.8,10.144,10.144,0,0,1,10.18,4.8,5.353,5.353,0,0,0,2.485,2.119,4,4,0,0,1,2.363,4.261c-.254,1.757-.459,3.521-.688,5.281s-.459,3.5-.689,5.251c-.145,1.1-.276,2.2-.437,3.3a4.007,4.007,0,0,1-4,3.464C-788.969,211.7-791.591,211.693-794.214,211.693Zm7.136-18.107a7.18,7.18,0,0,0-6.971-7.169,7.149,7.149,0,0,0-7.349,7.111,7.163,7.163,0,0,0,7.023,7.2A7.163,7.163,0,0,0-787.078,193.586Z" transform="translate(807.986 -183.125)" fill="#febaba"/>
    <path id="Path_3795" data-name="Path 3795" d="M-646.026,291.8a1.793,1.793,0,0,1-1.385-.73q-1.457-1.974-2.881-3.973a1.154,1.154,0,0,1,.154-1.471,1.146,1.146,0,0,1,1.475-.106c1.242.887,2.467,1.8,3.716,2.677a2.029,2.029,0,0,1,.939,1.409A1.948,1.948,0,0,1-646.026,291.8Z" transform="translate(659.879 -279.211)" fill="#febaba"/>
  </g>
</svg>
