<svg xmlns="http://www.w3.org/2000/svg" width="35.014" height="35" viewBox="0 0 35.014 35">
  <g id="Group_1931" data-name="Group 1931" transform="translate(566.389 -89.628)">
    <path id="Path_3450" data-name="Path 3450" d="M-545.771,96.188h-.438q-9.315,0-18.629,0a1.458,1.458,0,0,1-1.467-1.936,1.492,1.492,0,0,1,1.488-.986c1.5-.006,3.008,0,4.512,0q7.093,0,14.186.006a.423.423,0,0,0,.486-.328,5.084,5.084,0,0,1,4.8-3.314,5.063,5.063,0,0,1,4.747,3.329.405.405,0,0,0,.468.313q1.367-.022,2.735,0a1.427,1.427,0,0,1,1.353.822,1.384,1.384,0,0,1-.124,1.486,1.4,1.4,0,0,1-1.2.611c-.946,0-1.892.006-2.837,0a.322.322,0,0,0-.366.252,5.049,5.049,0,0,1-4.842,3.387,5.07,5.07,0,0,1-4.781-3.429C-545.706,96.331-545.736,96.27-545.771,96.188Zm7.085-1.459a2.152,2.152,0,0,0-2.189-2.176,2.182,2.182,0,0,0-2.183,2.162,2.223,2.223,0,0,0,2.188,2.209A2.182,2.182,0,0,0-538.686,94.729Z" transform="translate(0 0)" fill="#707070"/>
    <path id="Path_3451" data-name="Path 3451" d="M-555.455,456.073c3.122,0,6.244,0,9.366.006a.4.4,0,0,0,.451-.32,5.066,5.066,0,0,1,4.787-3.322,5.04,5.04,0,0,1,4.761,3.3.423.423,0,0,0,.481.34c.888-.022,1.777-.009,2.666-.008a1.459,1.459,0,0,1,1.563,1.45,1.469,1.469,0,0,1-1.55,1.472c-.9.01-1.8.013-2.7,0a.408.408,0,0,0-.46.326,5.071,5.071,0,0,1-4.791,3.318,5.094,5.094,0,0,1-4.754-3.326.4.4,0,0,0-.46-.316q-9.315.01-18.629,0a1.523,1.523,0,0,1-1.571-.967,1.455,1.455,0,0,1,1.406-1.955q4.58-.006,9.161,0Zm16.773,1.462a2.182,2.182,0,0,0-2.18-2.2,2.218,2.218,0,0,0-2.191,2.2,2.183,2.183,0,0,0,2.179,2.166A2.153,2.153,0,0,0-538.682,457.535Z" transform="translate(-0.004 -338.006)" fill="#707070"/>
    <path id="Path_3452" data-name="Path 3452" d="M-542.218,277.546q-4.716,0-9.433-.006a.4.4,0,0,0-.456.321,5.112,5.112,0,0,1-4.779,3.346,5.108,5.108,0,0,1-4.779-3.343.405.405,0,0,0-.458-.325q-1.418.024-2.836,0a1.437,1.437,0,0,1-1.4-1.285A1.458,1.458,0,0,1-565.3,274.7a2.147,2.147,0,0,1,.541-.05c.877,0,1.755-.012,2.631,0a.406.406,0,0,0,.463-.319,5.1,5.1,0,0,1,8.4-1.838,4.732,4.732,0,0,1,1.161,1.828.417.417,0,0,0,.485.329q9.177-.012,18.353-.007c.1,0,.205.006.308,0a1.47,1.47,0,0,1,1.6,1.445,1.512,1.512,0,0,1-1.593,1.463c-2.939-.026-5.879-.009-8.818-.009Zm-16.848-1.444a2.174,2.174,0,0,0,2.19,2.184,2.212,2.212,0,0,0,2.18-2.177,2.21,2.21,0,0,0-2.19-2.2A2.171,2.171,0,0,0-559.066,276.1Z" transform="translate(-0.017 -168.97)" fill="#707070"/>
  </g>
</svg>
