<svg xmlns="http://www.w3.org/2000/svg" width="40.041" height="40" viewBox="0 0 40.041 40">
  <g id="Group_537" data-name="Group 537" transform="translate(473.473 -144.087)">
    <path id="Path_3528" data-name="Path 3528" d="M-436.624,164.142a16.662,16.662,0,0,0-10.79-15.859,1.52,1.52,0,0,1-.624-2.672,1.482,1.482,0,0,1,1.654-.235,19.1,19.1,0,0,1,5.573,3.248,19.868,19.868,0,0,1,7.05,12,19.494,19.494,0,0,1-3.547,15.234,19.243,19.243,0,0,1-13.041,7.955A19.917,19.917,0,0,1-472.9,168.774a19.624,19.624,0,0,1,3.769-17.026,19.175,19.175,0,0,1,12.775-7.448,22.377,22.377,0,0,1,2.776-.212,1.41,1.41,0,0,1,1.582,1.472,1.483,1.483,0,0,1-1.585,1.594,17.143,17.143,0,0,0-15.961,11.654,16.913,16.913,0,0,0,11.494,21.576c5.74,1.6,10.938.253,15.523-3.447a15.9,15.9,0,0,0,5.794-10.35,7.715,7.715,0,0,0,.1-.907C-436.612,165.168-436.624,164.655-436.624,164.142Z" transform="translate(0)" fill="#d10a11"/>
    <path id="Path_3529" data-name="Path 3529" d="M-339.1,225.14q0-1.274,0-2.549a2.373,2.373,0,0,1,1.816-2.4,10.269,10.269,0,0,0,2.187-.943,4.059,4.059,0,0,0,2-4.667,4.82,4.82,0,0,0-4.329-3.515,4.807,4.807,0,0,0-4.754,4.381,2.475,2.475,0,0,1-.181.785,1.386,1.386,0,0,1-1.576.965,1.576,1.576,0,0,1-1.311-1.559,7.478,7.478,0,0,1,3.855-6.565c5.118-3.066,10.841.808,11.441,5.629.41,3.29-1.155,5.592-3.781,7.31a10.346,10.346,0,0,1-1.9.9.516.516,0,0,0-.4.584q.024,2.26,0,4.521a1.507,1.507,0,0,1-1.564,1.49,1.489,1.489,0,0,1-1.5-1.488c-.008-.32,0-.641,0-.962Q-339.1,226.1-339.1,225.14Z" transform="translate(-115.886 -57.751)" fill="#d10a11"/>
    <path id="Path_3530" data-name="Path 3530" d="M-279.845,467.133a1.509,1.509,0,0,1-1.5-1.588,1.552,1.552,0,0,1,1.569-1.493,1.568,1.568,0,0,1,1.511,1.56A1.526,1.526,0,0,1-279.845,467.133Z" transform="translate(-173.644 -289.187)" fill="#d10a11"/>
  </g>
</svg>
