<svg id="Group_2334" data-name="Group 2334" xmlns="http://www.w3.org/2000/svg" width="50" height="50" viewBox="0 0 50 50">
  <circle id="Ellipse_47" data-name="Ellipse 47" cx="25" cy="25" r="25" transform="translate(0)" fill="#d10a11"/>
  <g id="Group_273" data-name="Group 273" transform="translate(14.284 11.429)">
    <path id="Path_3490" data-name="Path 3490" d="M-466.961,151.51a3.958,3.958,0,0,1-2.176,3.8A72,72,0,0,1-476.83,159a1.478,1.478,0,0,0-1.008.945,1.231,1.231,0,0,0,.332,1.267,1.17,1.17,0,0,0,1.3.3,38.523,38.523,0,0,0,9.84-5.111,4.219,4.219,0,0,0,1.645-4.044c-.17-1.537-.346-3.075-.559-4.606-.266-1.911-.566-3.817-.866-5.723-.108-.684-.256-1.361-.386-2.041a1.147,1.147,0,0,1,.859-1.311,1.111,1.111,0,0,1,1.349.835q.293,1.522.518,3.058c.242,1.646.487,3.292.68,4.943.211,1.8.352,3.611.55,5.414a6.28,6.28,0,0,1-.281,2.809,5.662,5.662,0,0,1-2.249,2.915,40.144,40.144,0,0,1-11.827,5.439,4.906,4.906,0,0,1-2.739.125,4.433,4.433,0,0,1-2.853-2.858A14.655,14.655,0,0,1-483.3,158c-.3-1.939-.605-3.876-.875-5.819-.246-1.775-.454-3.555-.666-5.334-.095-.795-.153-1.594-.24-2.389a3.688,3.688,0,0,1,2.008-3.676c1.943-.974,3.89-1.946,5.881-2.815,1.715-.748,3.485-1.378,5.248-2.01a2.22,2.22,0,0,1,3.085,1.725c.467,2.361.912,4.73,1.257,7.112.293,2.025.433,4.073.636,6.111C-466.944,151.1-466.961,151.307-466.961,151.51Zm-6.772.051v.054c.5,0,1-.008,1.506,0a.89.89,0,0,0,.923-.548.878.878,0,0,0-.287-1.062c-.518-.494-1.041-.982-1.561-1.474a.7.7,0,0,1-.175-1.02c.3-.591.591-1.182.893-1.769a.7.7,0,0,0-.043-.835.676.676,0,0,0-.788-.173c-.629.2-1.264.379-1.894.575a.75.75,0,0,1-.884-.256c-.332-.4-.674-.8-1.015-1.2a.648.648,0,0,0-.685-.243.638.638,0,0,0-.5.559c-.1.632-.219,1.26-.306,1.893a.8.8,0,0,1-.6.742c-.508.158-1.009.339-1.512.514a.676.676,0,0,0-.236,1.235c.453.391.9.783,1.362,1.168a.751.751,0,0,1,.313.665q-.1,1.02-.211,2.037a.937.937,0,0,0,.446.983.858.858,0,0,0,1.061-.14q.773-.649,1.534-1.312a1.61,1.61,0,0,1,1.117-.4C-474.758,151.563-474.246,151.561-473.733,151.561Z" transform="translate(485.099 -135.787)" fill="#febaba"/>
  </g>
</svg>
