<svg id="Group_2499" data-name="Group 2499" xmlns="http://www.w3.org/2000/svg" width="46.93" height="46.855" viewBox="0 0 46.93 46.855">
  <path id="Path_3773" data-name="Path 3773" d="M-472.636,199.275c-.013-.271-.029-.445-.029-.62q.007-20.68.017-41.361a4.64,4.64,0,0,1,3.776-4.781,5.772,5.772,0,0,1,1.149-.073c12.339,0,24.677.019,37.016-.02a4.785,4.785,0,0,1,4.874,3.816,6.357,6.357,0,0,1,.073,1.149c0,9.2-.034,18.407.025,27.61a4.883,4.883,0,0,1-5.011,5c-10.652-.049-21.3-.017-31.956-.027a1.285,1.285,0,0,0-1.008.409q-4.2,4.236-8.433,8.445C-472.279,198.955-472.425,199.081-472.636,199.275Zm37.492-37.429h-28.116v4.633h28.116Zm0,7.04h-28.116v4.636h28.116ZM-463.276,180.6h.712q7.145,0,14.289,0c1.238,0,2.476-.05,3.714-.077q.03-1.834.059-3.668c0-.305,0-.611,0-.922h-18.775Z" transform="translate(472.665 -152.421)" fill="#7a7a7a"/>
</svg>
