<svg id="Group_2497" data-name="Group 2497" xmlns="http://www.w3.org/2000/svg" width="31.532" height="31.5" viewBox="0 0 31.532 31.5">
  <path id="Path_3754" data-name="Path 3754" d="M-338.628,198.869a22.671,22.671,0,0,1-16.3-7.2,22.148,22.148,0,0,1-5.846-11.616,16.178,16.178,0,0,1-.2-5.568,8.862,8.862,0,0,1,6.994-7.056,4.474,4.474,0,0,1,1.7.04,2.185,2.185,0,0,1,1.5,1.353q1.606,3.721,3.193,7.45a2.419,2.419,0,0,1-.24,2.368c-.8,1.236-1.6,2.469-2.419,3.693a.536.536,0,0,0-.023.641,12.192,12.192,0,0,0,5.109,5.055.474.474,0,0,0,.565-.038c1.164-.788,2.344-1.554,3.505-2.347a2.628,2.628,0,0,1,2.718-.257c2.272.99,4.543,1.987,6.843,2.908a2.787,2.787,0,0,1,1.823,3.492,8.886,8.886,0,0,1-7.7,6.989C-337.824,198.826-338.258,198.842-338.628,198.869Z" transform="translate(361.134 -167.369)" fill="#fff"/>
  <path id="Path_3755" data-name="Path 3755" d="M-121.844,181.784c.369.118.954.268,1.511.49a13.716,13.716,0,0,1,8.506,9.387,1.208,1.208,0,0,1-.464,1.359,1.164,1.164,0,0,1-1.4.029,2.036,2.036,0,0,1-.59-.888,11.888,11.888,0,0,0-2.208-4.142,11.461,11.461,0,0,0-5.876-3.769,1.216,1.216,0,0,1-.961-1.192C-123.339,182.334-122.793,181.78-121.844,181.784Z" transform="translate(142.106 -180.645)" fill="#fff"/>
  <path id="Path_3756" data-name="Path 3756" d="M-132.141,250.212a1.281,1.281,0,0,1-1.092,1.353,1.261,1.261,0,0,1-1.337-.82c-.124-.331-.21-.679-.356-1a6.353,6.353,0,0,0-4.15-3.592,1.273,1.273,0,0,1-1.008-1.56,1.269,1.269,0,0,1,1.719-.842,8.678,8.678,0,0,1,6.154,6.142A3,3,0,0,1-132.141,250.212Z" transform="translate(157.586 -237.645)" fill="#fff"/>
</svg>
