<svg id="Group_2487" data-name="Group 2487" xmlns="http://www.w3.org/2000/svg" width="50" height="50" viewBox="0 0 50 50">
  <circle id="Ellipse_74" data-name="Ellipse 74" cx="25" cy="25" r="25" transform="translate(0)" fill="#d10a11"/>
  <g id="Group_505" data-name="Group 505" transform="translate(11.428 11.428)">
    <path id="Path_3805" data-name="Path 3805" d="M-280.172,293.319a7.832,7.832,0,0,1-2.215,5.614c-1.586,1.623-3.208,3.211-4.82,4.809a1.07,1.07,0,0,1-1.653.007c-1.6-1.583-3.215-3.142-4.769-4.764a7.51,7.51,0,0,1-1.944-7.664,7.515,7.515,0,0,1,5.675-5.468,7.826,7.826,0,0,1,9.62,6.433C-280.221,292.683-280.2,293.085-280.172,293.319Zm-7.87-1.69a1.767,1.767,0,0,0-1.788,1.778,1.782,1.782,0,0,0,1.769,1.8,1.79,1.79,0,0,0,1.81-1.8A1.781,1.781,0,0,0-288.042,291.63Z" transform="translate(295.915 -275.565)" fill="#febaba"/>
    <path id="Path_3806" data-name="Path 3806" d="M-150.734,151.721a1.17,1.17,0,0,1-.7,1.2,1,1,0,0,1-1.221-.35,1.96,1.96,0,0,1-.256-.812,14.847,14.847,0,0,0-9.945-12.924,13.755,13.755,0,0,0-4.014-.841,1.075,1.075,0,0,1-1.014-1.149,1.1,1.1,0,0,1,1.187-.979,16.73,16.73,0,0,1,6.414,1.746,16.97,16.97,0,0,1,9.153,11.7C-150.947,150.1-150.864,150.918-150.734,151.721Z" transform="translate(176.479 -135.863)" fill="#febaba"/>
    <path id="Path_3807" data-name="Path 3807" d="M-155.67,221.026a1.055,1.055,0,0,1-.91,1.167,1.019,1.019,0,0,1-1.189-.909,10.4,10.4,0,0,0-.911-3.339,9.833,9.833,0,0,0-7.82-5.7c-.531-.076-1.024-.175-1.239-.745a1.063,1.063,0,0,1,1.091-1.428,11.947,11.947,0,0,1,7.917,3.972,11.98,11.98,0,0,1,3.043,6.719C-155.676,220.862-155.675,220.963-155.67,221.026Z" transform="translate(176.403 -205.088)" fill="#febaba"/>
  </g>
</svg>
