<svg id="profile" xmlns="http://www.w3.org/2000/svg" width="40" height="40" viewBox="0 0 40 40">
  <circle id="Ellipse_2" data-name="Ellipse 2" cx="20" cy="20" r="20" fill="#d10a11"/>
  <g id="Group_3" data-name="Group 3" transform="translate(4.923 4.923)">
    <path id="Path_3377" data-name="Path 3377" d="M-839.531,108.737a15.385,15.385,0,0,1-15.36-15.389,15.382,15.382,0,0,1,15.407-15.38,15.383,15.383,0,0,1,15.361,15.426A15.381,15.381,0,0,1-839.531,108.737Zm10.719-7.444a13.287,13.287,0,0,0-1.63-17.761,13.367,13.367,0,0,0-18.55.414,13.232,13.232,0,0,0-1.2,17.338c.046-.059.094-.111.131-.169a7.3,7.3,0,0,1,6.43-3.541c2.755-.021,5.513-.013,8.268,0a7.308,7.308,0,0,1,6,2.926C-829.172,100.75-829,101.023-828.813,101.293Zm-10.674-1.672c-1.528,0-3.059-.057-4.584.014a5.146,5.146,0,0,0-4.555,3.047.358.358,0,0,0,.1.516,13.167,13.167,0,0,0,10.175,3.461,13.151,13.151,0,0,0,7.9-3.483.322.322,0,0,0,.086-.457,5.147,5.147,0,0,0-4.57-3.082C-836.452,99.563-837.971,99.62-839.487,99.62Z" transform="translate(854.892 -77.968)" fill="#fff"/>
    <path id="Path_3378" data-name="Path 3378" d="M-718.959,171.01a5.748,5.748,0,0,1,2.2-4.18,5.233,5.233,0,0,1,7.214.427,6.367,6.367,0,0,1,.241,8.457,5.321,5.321,0,0,1-8.556-.5A6.838,6.838,0,0,1-718.959,171.01Zm2.021.272a4.8,4.8,0,0,0,.438,2.266,3.341,3.341,0,0,0,5.439,1.077,4.341,4.341,0,0,0,.221-5.783,3.222,3.222,0,0,0-4.1-.811A3.851,3.851,0,0,0-716.938,171.283Z" transform="translate(728.777 -159.261)" fill="#fff"/>
  </g>
</svg>
