<svg xmlns="http://www.w3.org/2000/svg" width="35.056" height="35" viewBox="0 0 35.056 35">
  <g id="Group_1932" data-name="Group 1932" transform="translate(472.665 -152.421)">
    <path id="Path_3773" data-name="Path 3773" d="M-472.643,187.421c-.01-.2-.022-.333-.022-.463q.005-15.448.013-30.9a3.466,3.466,0,0,1,2.821-3.571,4.312,4.312,0,0,1,.858-.055c9.217,0,18.434.014,27.65-.015a3.574,3.574,0,0,1,3.641,2.851,4.742,4.742,0,0,1,.055.858c0,6.875-.025,13.75.018,20.625a3.647,3.647,0,0,1-3.743,3.732c-7.957-.036-15.914-.013-23.87-.02a.96.96,0,0,0-.753.305q-3.139,3.164-6.3,6.308C-472.376,187.181-472.485,187.275-472.643,187.421Zm28.006-27.959h-21v3.461h21Zm0,5.259h-21v3.463h21Zm-21.014,8.753h.532q5.337,0,10.674,0c.925,0,1.85-.037,2.775-.057q.022-1.37.044-2.74c0-.228,0-.456,0-.689h-14.025Z" transform="translate(0 0)" fill="#707070"/>
  </g>
</svg>
