<svg id="Group_6" data-name="Group 6" xmlns="http://www.w3.org/2000/svg" width="35.005" height="35" viewBox="0 0 35.005 35">
  <path id="Path_3558" data-name="Path 3558" d="M-405.049,195.355a17.5,17.5,0,0,1-17.578,17.489,17.5,17.5,0,0,1-17.427-17.537A17.5,17.5,0,0,1-422.5,177.844,17.5,17.5,0,0,1-405.049,195.355Zm-14.794-3.162h-.561c-1.875,0-3.75,0-5.625,0-.606,0-.966.284-.98.74-.015.49.339.773.985.774q2.736,0,5.471,0H-420a2.791,2.791,0,0,1-2.727,1.976c-1.056.025-2.113.007-3.17.008-.4,0-.807,0-1.022.418-.2.393.006.717.212,1.041q2.241,3.535,4.478,7.074a2.186,2.186,0,0,0,.234.334.693.693,0,0,0,.965.128.7.7,0,0,0,.252-.943,3.366,3.366,0,0,0-.259-.439q-1.8-2.848-3.6-5.7c-.073-.117-.13-.245-.222-.42.8,0,1.517.016,2.231,0a4.178,4.178,0,0,0,3.354-1.668,15.66,15.66,0,0,0,1.04-1.809c.611,0,1.309,0,2.007,0,.608,0,.947-.279.945-.757s-.331-.749-.951-.757c-.58-.007-1.159.008-1.738-.011a.458.458,0,0,1-.352-.185c-.3-.756-.573-1.524-.852-2.282.919,0,1.924,0,2.929,0,.62,0,.956-.264.964-.738.009-.5-.332-.78-.98-.78q-4.883-.005-9.766,0c-.6,0-.965.285-.978.743-.014.49.34.773.986.775,1.142,0,2.284-.012,3.426.007A2.9,2.9,0,0,1-419.844,192.193Z" transform="translate(440.055 -177.844)" fill="#707070"/>
</svg>
