<svg xmlns="http://www.w3.org/2000/svg" width="4.999" height="20" viewBox="0 0 4.999 20">
  <g id="Group_4" data-name="Group 4" transform="translate(322.852 -141.02)">
    <path id="Path_3563" data-name="Path 3563" d="M-320.354,146.019a2.5,2.5,0,0,1-2.5-2.511,2.5,2.5,0,0,1,2.5-2.488,2.5,2.5,0,0,1,2.5,2.51A2.5,2.5,0,0,1-320.354,146.019Z" transform="translate(0)" fill="#fff"/>
    <path id="Path_3564" data-name="Path 3564" d="M-320.359,338.019a2.5,2.5,0,0,1-2.493-2.516,2.5,2.5,0,0,1,2.506-2.483,2.5,2.5,0,0,1,2.493,2.515A2.5,2.5,0,0,1-320.359,338.019Z" transform="translate(0 -184.499)" fill="#fff"/>
    <path id="Path_3565" data-name="Path 3565" d="M-320.341,525.019a2.5,2.5,0,0,1,2.488,2.5,2.5,2.5,0,0,1-2.511,2.5,2.5,2.5,0,0,1-2.488-2.521A2.5,2.5,0,0,1-320.341,525.019Z" transform="translate(0 -368.998)" fill="#fff"/>
  </g>
</svg>
