<svg xmlns="http://www.w3.org/2000/svg" width="13.26" height="15" viewBox="0 0 13.26 15">
  <g id="Group_2000" data-name="Group 2000" transform="translate(355.854 -225.582)">
    <path id="Path_4299" data-name="Path 4299" d="M-349.233,422.011c1.02,0,2.041-.026,3.06.006a4.035,4.035,0,0,1,3.568,2.745.333.333,0,0,1-.04.257,7.843,7.843,0,0,1-5.1,3.243,7.9,7.9,0,0,1-7.144-2.167,10.25,10.25,0,0,1-.91-1.058.381.381,0,0,1-.043-.311,4.081,4.081,0,0,1,3.939-2.734c.889.014,1.778,0,2.667,0Z" transform="translate(0 -187.824)" fill="#8292a8"/>
    <path id="Path_4300" data-name="Path 4300" d="M-279.834,232.484a3.468,3.468,0,0,1-3.435-3.461,3.5,3.5,0,0,1,3.468-3.441,3.468,3.468,0,0,1,3.434,3.462A3.5,3.5,0,0,1-279.834,232.484Z" transform="translate(-69.411 0)" fill="#8292a8"/>
  </g>
</svg>
