<svg xmlns="http://www.w3.org/2000/svg" width="58" height="58" viewBox="0 0 58 58">
  <g id="Group_2799" data-name="Group 2799" transform="translate(-344 -817)">
    <rect id="Rectangle_506" data-name="Rectangle 506" width="58" height="58" rx="10" transform="translate(344 817)" fill="#d10a11"/>
    <g id="Group_407" data-name="Group 407" transform="translate(356.682 829.709)">
      <path id="Path_3773" data-name="Path 3773" d="M-472.645,185c-.009-.188-.021-.31-.021-.431q0-14.381.012-28.762a3.227,3.227,0,0,1,2.626-3.324,4.015,4.015,0,0,1,.8-.051c8.58,0,17.16.013,25.74-.014a3.327,3.327,0,0,1,3.389,2.654,4.416,4.416,0,0,1,.051.8c0,6.4-.023,12.8.017,19.2a3.4,3.4,0,0,1-3.484,3.474c-7.407-.034-14.814-.012-22.221-.019a.894.894,0,0,0-.7.284q-2.922,2.946-5.864,5.872C-472.4,184.78-472.5,184.867-472.645,185Zm26.071-26.028h-19.551V162.2h19.551Zm0,4.9h-19.551v3.224h19.551Zm-19.562,8.148h.495q4.968,0,9.937,0c.861,0,1.722-.035,2.583-.053q.021-1.275.041-2.551c0-.212,0-.425,0-.641h-13.056Z" transform="translate(472.665 -152.421)" fill="#fff"/>
    </g>
  </g>
</svg>
