<svg id="Group_2570" data-name="Group 2570" xmlns="http://www.w3.org/2000/svg" width="29.397" height="29.394" viewBox="0 0 29.397 29.394">
  <path id="Path_3786" data-name="Path 3786" d="M-426.515,186.761a14.721,14.721,0,0,1-14.7-14.708A14.674,14.674,0,0,1-426.5,157.367a14.693,14.693,0,0,1,14.686,14.682A14.733,14.733,0,0,1-426.515,186.761Zm-12.026-14.7a12.034,12.034,0,0,0,12,12.025,12.033,12.033,0,0,0,12.048-12.008,12.03,12.03,0,0,0-12.016-12.04A12.031,12.031,0,0,0-438.54,172.058Z" transform="translate(441.213 -157.367)" fill="#7a7a7a"/>
  <path id="Path_3787" data-name="Path 3787" d="M-306.34,418.7a8.413,8.413,0,0,1-6.122-2.719,4.611,4.611,0,0,1-.448-.522,1.322,1.322,0,0,1,.275-1.84,1.332,1.332,0,0,1,1.827.208,5.975,5.975,0,0,0,3.266,2.07,5.031,5.031,0,0,0,4.334-1.075,8.4,8.4,0,0,0,1.035-.994,1.35,1.35,0,0,1,1.83-.212,1.3,1.3,0,0,1,.259,1.86,8.387,8.387,0,0,1-5.156,3.1C-305.648,418.654-306.067,418.672-306.34,418.7Z" transform="translate(321.183 -397.319)" fill="#7a7a7a"/>
  <path id="Path_3788" data-name="Path 3788" d="M-290.334,309.476a1.3,1.3,0,0,1-1.335-1.316,1.3,1.3,0,0,1,1.314-1.336A1.316,1.316,0,0,1-289,308.156,1.315,1.315,0,0,1-290.334,309.476Z" transform="translate(301.033 -297.465)" fill="#7a7a7a"/>
  <path id="Path_3789" data-name="Path 3789" d="M-162.328,309.476a1.3,1.3,0,0,1-1.341-1.31,1.3,1.3,0,0,1,1.308-1.342A1.316,1.316,0,0,1-161,308.15,1.315,1.315,0,0,1-162.328,309.476Z" transform="translate(181.048 -297.465)" fill="#7a7a7a"/>
</svg>
