<svg id="Group_2571" data-name="Group 2571" xmlns="http://www.w3.org/2000/svg" width="25.574" height="29.394" viewBox="0 0 25.574 29.394">
  <path id="Path_3790" data-name="Path 3790" d="M-391.228,165.655a9.376,9.376,0,0,1-9.306-8.025,8.955,8.955,0,0,1,2.545-7.885q5.734-5.833,11.569-11.566a6.3,6.3,0,0,1,6.62-1.575,6.363,6.363,0,0,1,4.555,4.99,6.305,6.305,0,0,1-1.724,6.041q-5.224,5.325-10.546,10.553a3.779,3.779,0,0,1-4.094.92,3.81,3.81,0,0,1-2.677-3.2,3.924,3.924,0,0,1,1.213-3.53q2.878-2.865,5.745-5.741c.577-.577,1.145-1.163,1.733-1.729a1.33,1.33,0,0,1,2.25.567,1.289,1.289,0,0,1-.354,1.322l-1.731,1.732q-2.882,2.882-5.763,5.764a1.336,1.336,0,0,0-.064,1.971,1.344,1.344,0,0,0,1.805.074c.044-.037.085-.078.125-.119q5.2-5.2,10.4-10.41a4,4,0,0,0,.35-5.235,4.022,4.022,0,0,0-5.9-.572q-.117.106-.229.219-5.611,5.611-11.223,11.22a6.8,6.8,0,0,0-2,4.072,6.718,6.718,0,0,0,3.588,6.7,6.685,6.685,0,0,0,7.91-1.3q2.918-2.907,5.825-5.824c.876-.876,1.748-1.755,2.63-2.625a1.3,1.3,0,0,1,1.488-.265,1.347,1.347,0,0,1,.781,1.3,1.41,1.41,0,0,1-.455.934c-.526.52-1.046,1.045-1.569,1.567-2.385,2.38-4.751,4.78-7.163,7.134a8.792,8.792,0,0,1-5.138,2.426c-.124.016-.247.04-.371.049C-390.689,165.628-390.977,165.641-391.228,165.655Z" transform="translate(400.644 -136.262)" fill="#7a7a7a"/>
</svg>
