<svg id="Group_2486" data-name="Group 2486" xmlns="http://www.w3.org/2000/svg" width="50" height="50" viewBox="0 0 50 50">
  <circle id="Ellipse_73" data-name="Ellipse 73" cx="25" cy="25" r="25" fill="#d10a11"/>
  <g id="Group_504" data-name="Group 504" transform="translate(12.773 10.001)">
    <path id="Path_3797" data-name="Path 3797" d="M-467.962,269.254c.655,0,1.226,0,1.8,0a1.671,1.671,0,0,0,1.78-1.673.724.724,0,0,1,.731-.709,4.885,4.885,0,0,0,.8-.047,1.654,1.654,0,0,0,1.323-1.784,1.676,1.676,0,0,0-1.675-1.5q-3.423-.007-6.845,0h-.4l-.151-1.892h1.912c.007-.105.018-.19.018-.275,0-.6-.01-1.191.006-1.786a.6.6,0,0,0-.236-.568.617.617,0,0,1-.251-.591c.021-.436.006-.873.006-1.309,0-.837.291-1.154,1.071-1.208a2.114,2.114,0,0,1-.478-.531,1.24,1.24,0,0,1-.044-.738.89.89,0,0,1,.939-.625.972.972,0,0,1,.876.766c.094.435-.119.812-.664,1.122.139.009.24.008.339.022a.957.957,0,0,1,.813.925c.009.585.012,1.171-.006,1.756a.526.526,0,0,1-.178.344.813.813,0,0,0-.3.726c.023.642.007,1.284.007,1.942h2.859v-.308c0-.476-.019-.953.006-1.428a1.03,1.03,0,0,0-.379-1.02.4.4,0,0,1-.1-.288c-.01-.486,0-.972,0-1.458,0-.836.291-1.153,1.071-1.208a2.114,2.114,0,0,1-.477-.531,1.239,1.239,0,0,1-.044-.738.89.89,0,0,1,.939-.625.972.972,0,0,1,.876.767c.094.434-.119.811-.663,1.122.139.008.24.008.339.022a.957.957,0,0,1,.812.925c.009.585.012,1.171-.006,1.756a.526.526,0,0,1-.178.343.812.812,0,0,0-.3.726c.023.641.007,1.284.007,1.942h2.86v-.7c0-.347-.019-.7,0-1.041a1.017,1.017,0,0,0-.378-1.02.4.4,0,0,1-.1-.288c-.01-.486,0-.972,0-1.458,0-.835.29-1.151,1.07-1.207a2.116,2.116,0,0,1-.477-.531,1.239,1.239,0,0,1-.043-.738.89.89,0,0,1,.939-.624.968.968,0,0,1,.867.739c.112.443-.1.832-.657,1.151l.252.015a.949.949,0,0,1,.9.932c.01.585.012,1.171-.006,1.756a.526.526,0,0,1-.179.343.812.812,0,0,0-.3.726c.022.641.007,1.284.007,1.942h2.86v-.756c0-.327-.019-.656,0-.982a1.014,1.014,0,0,0-.379-1.02.4.4,0,0,1-.1-.288c-.01-.486,0-.972,0-1.458,0-.834.288-1.148,1.07-1.207a2.114,2.114,0,0,1-.477-.531,1.239,1.239,0,0,1-.043-.738.89.89,0,0,1,.94-.624.968.968,0,0,1,.867.739c.112.442-.1.83-.653,1.149.147.01.259.008.367.028a.955.955,0,0,1,.782.921c.009.585.011,1.171,0,1.756a.485.485,0,0,1-.159.322.864.864,0,0,0-.318.777c.026.631.008,1.264.008,1.911h2.86v-.757c0-.347-.018-.7.005-1.041a.957.957,0,0,0-.358-.939.438.438,0,0,1-.118-.309c-.012-.486-.005-.972-.005-1.458,0-.833.287-1.146,1.069-1.207a2.222,2.222,0,0,1-.477-.532,1.18,1.18,0,0,1-.05-.709.893.893,0,0,1,.949-.651.968.968,0,0,1,.866.74c.111.443-.1.828-.655,1.15l.252.014a.949.949,0,0,1,.9.933c.01.585.011,1.171,0,1.756a.485.485,0,0,1-.159.322.864.864,0,0,0-.317.777c.026.631.008,1.264.008,1.919h1.918c-.028.465-.035.907-.084,1.344a12.481,12.481,0,0,1-1.2,4.139c-.083.168-.168.265-.375.243s-.436,0-.654-.006a.488.488,0,0,1-.55-.547c0-.585,0-1.171,0-1.756a1.433,1.433,0,0,0-1.517-1.506q-1.815,0-3.631,0a1.444,1.444,0,0,0-1.521,1.443,1.448,1.448,0,0,0,1.518,1.416c.119,0,.238,0,.357,0a.48.48,0,0,1,.506.5c0,.01,0,.02,0,.03.027.67-.009.926-.861.9-.8-.026-1.607-.008-2.411,0a1.429,1.429,0,0,0-1.49,1.5,3.523,3.523,0,0,0,.024.652,1.419,1.419,0,0,0,1.433,1.18q2.842.005,5.684,0h.2a11.826,11.826,0,0,1-8.6,2.824A12.283,12.283,0,0,1-467.962,269.254Zm6.94-.029,0,.027c-.178,0-.357,0-.536,0a1.451,1.451,0,0,0-1.393,1.266,1.381,1.381,0,0,0,1.076,1.528,6.118,6.118,0,0,0,1.449.05,1.42,1.42,0,0,0,1.277-1.283,1.417,1.417,0,0,0-1.02-1.493A5.791,5.791,0,0,0-461.021,269.225Z" transform="translate(470.602 -245.441)" fill="#febaba"/>
    <path id="Path_3798" data-name="Path 3798" d="M-229.178,433.89c-.481.584-.959,1.171-1.447,1.749a.347.347,0,0,1-.24.073q-3.39.006-6.781,0a.482.482,0,0,1-.538-.529c0-.1,0-.2,0-.3,0-.428.167-.6.588-.6.882,0,1.765,0,2.647,0a1.431,1.431,0,0,0,1.524-1.525,3.313,3.313,0,0,0-.062-.765,1.4,1.4,0,0,0-1.325-1.045c-.178-.005-.357.007-.535,0a.477.477,0,0,1-.456-.461.461.461,0,0,1,.462-.481q1.918-.011,3.836,0a.458.458,0,0,1,.459.514c.006.565,0,1.13,0,1.7a1.446,1.446,0,0,0,1.575,1.6h.226Z" transform="translate(252.02 -410.951)" fill="#febaba"/>
    <path id="Path_3799" data-name="Path 3799" d="M-464.047,430.034c.075,0,.144-.012.212-.012q3.361,0,6.722,0a.713.713,0,0,1,.717,1.018.72.72,0,0,1-.673.409,4.559,4.559,0,0,0-.826.057,1.633,1.633,0,0,0-1.282,1.52.736.736,0,0,1-.846.8c-.744,0-1.487.007-2.231-.007a.421.421,0,0,1-.3-.158,12.07,12.07,0,0,1-1.487-3.506A.552.552,0,0,1-464.047,430.034Z" transform="translate(464.44 -410.97)" fill="#febaba"/>
    <path id="Path_3800" data-name="Path 3800" d="M-404.456,111.841a2.856,2.856,0,0,1,.748.364,1.03,1.03,0,0,1,.283.651,16.841,16.841,0,0,1,0,1.724.578.578,0,0,1-.188.369.809.809,0,0,0-.286.7c.02.624,0,1.249,0,1.874a.5.5,0,0,1-.017.078h-1.883c0-.673-.011-1.344.006-2.014a.628.628,0,0,0-.249-.592.593.593,0,0,1-.238-.566c.018-.455.005-.912.005-1.368,0-.784.32-1.121,1.15-1.163a.986.986,0,0,1-.6-1.312.94.94,0,0,1,.95-.579.974.974,0,0,1,.857.752A.976.976,0,0,1-404.456,111.841Z" transform="translate(410.104 -110.005)" fill="#febaba"/>
    <path id="Path_3801" data-name="Path 3801" d="M-325.124,111.924c-.563-.353-.759-.728-.635-1.174a.952.952,0,0,1,.911-.718.95.95,0,0,1,.925.7.966.966,0,0,1-.528,1.136,2.861,2.861,0,0,1,.747.366,1.032,1.032,0,0,1,.282.652c.039.572.022,1.15.005,1.724a.523.523,0,0,1-.169.347.84.84,0,0,0-.306.752c.022.633.007,1.267.007,1.921h-1.9c0-.675-.011-1.346.006-2.017a.629.629,0,0,0-.251-.591.6.6,0,0,1-.236-.567c.018-.455,0-.912.005-1.368C-326.265,112.3-325.946,111.967-325.124,111.924Z" transform="translate(334.864 -110.03)" fill="#febaba"/>
    <path id="Path_3802" data-name="Path 3802" d="M-243.888,117.626h-1.9c0-.694-.009-1.376.005-2.057a.582.582,0,0,0-.232-.539.651.651,0,0,1-.255-.619c.018-.436,0-.872.005-1.309,0-.812.307-1.142,1.072-1.185a2.2,2.2,0,0,1-.489-.551,1.231,1.231,0,0,1-.028-.739.9.9,0,0,1,.924-.6.966.966,0,0,1,.875.729c.115.433-.081.8-.635,1.17a.973.973,0,0,1,.963.43,1.228,1.228,0,0,1,.165.556c.022.535.022,1.071,0,1.606a.721.721,0,0,1-.193.455.844.844,0,0,0-.281.7C-243.874,116.313-243.888,116.957-243.888,117.626Z" transform="translate(259.627 -110.02)" fill="#febaba"/>
    <path id="Path_3803" data-name="Path 3803" d="M-165.129,111.921c-.572-.334-.774-.722-.643-1.179a.948.948,0,0,1,.917-.71.963.963,0,0,1,.93.735c.115.446-.1.843-.663,1.153.1.007.164.013.224.016a.949.949,0,0,1,.937.957c.007.515-.01,1.032.007,1.547a.62.62,0,0,1-.245.593.6.6,0,0,0-.242.565c.016.672.006,1.344.006,2.034h-1.9V117c0-.466-.012-.932.005-1.4a.6.6,0,0,0-.235-.568.619.619,0,0,1-.252-.591c.021-.445.006-.892.006-1.338C-166.281,112.3-165.978,111.978-165.129,111.921Z" transform="translate(184.404 -110.03)" fill="#febaba"/>
    <path id="Path_3804" data-name="Path 3804" d="M-325.2,526.886c-.168,0-.336.01-.5,0a.473.473,0,0,1-.454-.488.466.466,0,0,1,.456-.455c.335-.013.671-.014,1.006,0a.464.464,0,0,1,.439.47.472.472,0,0,1-.441.47C-324.862,526.9-325.031,526.886-325.2,526.886Z" transform="translate(334.754 -501.171)" fill="#febaba"/>
  </g>
</svg>
