<svg xmlns="http://www.w3.org/2000/svg" width="50" height="50" viewBox="0 0 50 50">
  <g id="Group_2491" data-name="Group 2491" transform="translate(-32 -1807)">
    <circle id="Ellipse_49" data-name="Ellipse 49" cx="25" cy="25" r="25" transform="translate(32 1807)" fill="#d10a11"/>
    <g id="Group_278" data-name="Group 278" transform="translate(42 1818.428)">
      <path id="Path_3497" data-name="Path 3497" d="M-391.625,189.325a9.052,9.052,0,0,1,5.032,1.989,7.761,7.761,0,0,1,2.721,3.105,6.644,6.644,0,0,1,.434,3.242,6.962,6.962,0,0,0,2.3,5.873q4.634,4.417,9.235,8.869a3.116,3.116,0,0,1,1.023,1.628,2.54,2.54,0,0,1-1.384,2.816,2.481,2.481,0,0,1-3.059-.686c-1.335-1.744-2.657-3.5-3.939-5.28-1.3-1.8-2.55-3.636-3.8-5.472a7.074,7.074,0,0,0-5.826-3.272,5.723,5.723,0,0,1-4.456-2.32,11.031,11.031,0,0,1-2.3-5.285,5.663,5.663,0,0,1,.344-3.176C-394.61,189.871-393.367,189.329-391.625,189.325Z" transform="translate(395.713 -188.532)" fill="#febaba"/>
      <path id="Path_3498" data-name="Path 3498" d="M-190.782,193.176a5.385,5.385,0,0,0-2.266.365.349.349,0,0,1-.3-.017q-1.039-.981-2.054-1.987a.761.761,0,0,1-.162-.752,7.144,7.144,0,0,0,.151-1.785,5.7,5.7,0,0,1,1.833-4.846c1.733-1.639,3.434-3.312,5.147-4.972a.963.963,0,0,1,.86-.37.791.791,0,0,1,.656.554.86.86,0,0,1-.226.9c-.8.846-1.6,1.7-2.406,2.545q-.957,1.013-1.918,2.023a1.047,1.047,0,0,0-.3,1.1,1.007,1.007,0,0,0,1.73.346c.691-.711,1.36-1.444,2.038-2.168.738-.788,1.47-1.581,2.217-2.361a.988.988,0,0,1,1.2-.222.941.941,0,0,1,.518,1.067,1.856,1.856,0,0,1-.435.724c-1.336,1.449-2.694,2.878-4.031,4.326a1.015,1.015,0,0,0,.475,1.741,1.1,1.1,0,0,0,1.092-.439q2.089-2.249,4.184-4.493a.871.871,0,0,1,.887-.364.815.815,0,0,1,.393,1.368c-.667.8-1.344,1.592-2.018,2.387-.909,1.072-1.835,2.131-2.726,3.218A5.438,5.438,0,0,1-190.782,193.176Z" transform="translate(210.669 -178.801)" fill="#febaba"/>
      <path id="Path_3499" data-name="Path 3499" d="M-358,409.7l1.932,2.857c-.429.552-.862,1.116-1.3,1.674-1.466,1.864-2.925,3.734-4.4,5.587a2.516,2.516,0,0,1-3.7.338,2.491,2.491,0,0,1,0-3.759c2.429-2.217,4.883-4.406,7.327-6.606A1.341,1.341,0,0,1-358,409.7Z" transform="translate(368.541 -392.297)" fill="#febaba"/>
    </g>
  </g>
</svg>
