<svg xmlns="http://www.w3.org/2000/svg" width="24.026" height="24.026" viewBox="0 0 24.026 24.026">
  <g id="Group_2532" data-name="Group 2532" transform="translate(0)">
    <path id="Path_3701" data-name="Path 3701" d="M-488.957,138.019a12.014,12.014,0,0,1,12,12.061A12.017,12.017,0,0,1-489,162.045a12.017,12.017,0,0,1-11.977-12.112A12.018,12.018,0,0,1-488.957,138.019Zm-.019,14.284c.082.077.143.132.2.19.879.878,1.755,1.76,2.637,2.635a1.55,1.55,0,0,0,1.671.426,1.6,1.6,0,0,0,.615-2.672c-.877-.892-1.767-1.771-2.652-2.656-.062-.062-.121-.128-.2-.215.089-.078.162-.134.227-.2q1.3-1.3,2.6-2.6a1.557,1.557,0,0,0,.437-1.669,1.6,1.6,0,0,0-2.685-.616c-.886.871-1.759,1.756-2.638,2.634-.063.063-.13.122-.2.191-.078-.075-.145-.136-.209-.2-.873-.873-1.743-1.748-2.62-2.617a1.549,1.549,0,0,0-1.671-.424,1.6,1.6,0,0,0-.613,2.672c.877.892,1.768,1.771,2.652,2.655.062.062.121.129.21.224-.1.08-.181.138-.252.208-.868.865-1.739,1.729-2.6,2.6a1.591,1.591,0,0,0,.189,2.478,1.592,1.592,0,0,0,2.093-.227C-490.855,154.193-489.928,153.258-488.975,152.3Z" transform="translate(500.98 -138.019)" fill="#ff6454"/>
  </g>
</svg>
