<svg id="Group_2574" data-name="Group 2574" xmlns="http://www.w3.org/2000/svg" width="36.739" height="36.742" viewBox="0 0 36.739 36.742">
  <path id="Path_3795" data-name="Path 3795" d="M-419.461,170.34a18.346,18.346,0,0,1,18.349,18.355A18.342,18.342,0,0,1-419.5,207.082a18.351,18.351,0,0,1-18.35-18.355A18.348,18.348,0,0,1-419.461,170.34Zm-14.691,18.367a14.657,14.657,0,0,0,14.613,14.675,14.652,14.652,0,0,0,14.729-14.667,14.652,14.652,0,0,0-14.649-14.674A14.653,14.653,0,0,0-434.152,188.707Z" transform="translate(437.851 -170.34)" fill="#7a7a7a"/>
  <path id="Path_3796" data-name="Path 3796" d="M-266,296.67h-.418q-2.883,0-5.767,0c-.589,0-.707-.152-.582-.726.108-.495.213-.99.322-1.485.1-.453.26-.584.723-.585q2.448,0,4.9,0c.1,0,.207-.01.31-.015l.1-.123c-.126-.085-.258-.163-.377-.258a4.087,4.087,0,0,0-2.939-1.1c-.565.044-1.136.012-1.7.006-.447,0-.569-.141-.489-.583.1-.534.215-1.064.334-1.593.112-.5.262-.618.771-.618h7.726c.6,0,1.209,0,1.814,0,.389,0,.546.152.59.531q.1.827.2,1.654c.055.444-.08.606-.533.608-1.063,0-2.126,0-3.234,0,.265.5.5.966.764,1.418.035.06.195.064.3.064.774.005,1.548,0,2.321,0,.456,0,.6.1.656.541.077.574.137,1.151.185,1.728.032.393-.1.522-.5.525-.8.006-1.6,0-2.394,0-.166,0-.3,0-.35.213a5.247,5.247,0,0,1-2.992,3.393c-.7.365-1.452.643-2.215.976.162.19.327.39.5.585,1.4,1.6,2.8,3.2,4.192,4.813a2.119,2.119,0,0,1,.475.83,1.194,1.194,0,0,1-.683,1.379,1.27,1.27,0,0,1-1.517-.325c-.564-.631-1.115-1.273-1.671-1.911q-2.3-2.637-4.6-5.277a1.283,1.283,0,0,1,.777-2.19c.52-.1,1.041-.209,1.551-.352a7.566,7.566,0,0,0,2.915-1.4,7.294,7.294,0,0,0,.6-.637Z" transform="translate(284.789 -280.937)" fill="#7a7a7a"/>
</svg>
