<svg xmlns="http://www.w3.org/2000/svg" width="32.516" height="37.199" viewBox="0 0 32.516 37.199">
  <g id="Group_7" data-name="Group 7" transform="translate(0)">
    <path id="Path_3571" data-name="Path 3571" d="M-335.01,151.95v-2.287a2.245,2.245,0,0,0,1.866-1.016,2.7,2.7,0,0,0,.425-1.278c.025-7.324.018-14.648.018-21.972,0-.036-.008-.071-.018-.162h-.377q-2.088,0-4.176,0a3.486,3.486,0,0,1-3.562-3.553q0-2.233-.005-4.467a.668.668,0,0,0-.031-.115h-12.537a2.338,2.338,0,0,0-2.538,2.523q0,10.1,0,20.192v.5h-2.322v-.38q0-10.241,0-20.483a4.64,4.64,0,0,1,4.676-4.674q6.21,0,12.42.008a.831.831,0,0,1,.535.205q5.046,5.02,10.068,10.064a.684.684,0,0,1,.183.436q.013,10.986,0,21.972A4.63,4.63,0,0,1-335.01,151.95Z" transform="translate(362.892 -114.777)"/>
    <path id="Path_3572" data-name="Path 3572" d="M-421.922,495.846c1.525.05,3.044,0,4.534.177a3.2,3.2,0,0,1,2.74,2.565,7.076,7.076,0,0,1-.027,3.935,3.3,3.3,0,0,1-2.987,2.573c-1.4.129-2.822.027-4.26.027Zm1.821,7.82a15.556,15.556,0,0,0,1.676-.01,2.073,2.073,0,0,0,1.977-1.721,5.779,5.779,0,0,0,.075-2.446A2.131,2.131,0,0,0-418,497.5a16.912,16.912,0,0,0-2.1-.166Z" transform="translate(421.922 -468.166)"/>
    <path id="Path_3573" data-name="Path 3573" d="M-300.668,498.8a17.544,17.544,0,0,1-.234,1.973,3.532,3.532,0,0,1-3.426,2.818,4,4,0,0,1-3.265-1.079,3.564,3.564,0,0,1-1.037-2.409,16.2,16.2,0,0,1,.075-3.069c.37-2.353,2.295-3.23,4.292-3.063,2.209.185,3.434,1.7,3.533,3.987.012.278,0,.557,0,.835Zm-1.907-.053c-.035-.474-.035-.973-.115-1.459a2.021,2.021,0,0,0-1.987-1.811,1.966,1.966,0,0,0-2.015,1.676,7.792,7.792,0,0,0-.024,3.167,1.962,1.962,0,0,0,2.1,1.75,2.012,2.012,0,0,0,1.94-1.895C-302.605,499.711-302.608,499.236-302.574,498.744Z" transform="translate(316.893 -466.406)"/>
    <path id="Path_3574" data-name="Path 3574" d="M-183.139,500.464h1.8a7.728,7.728,0,0,1-.268,1.159,3.04,3.04,0,0,1-2.323,1.879,4.067,4.067,0,0,1-3.777-.8,3.3,3.3,0,0,1-1.081-2.042,10.566,10.566,0,0,1,.038-3.787,3.591,3.591,0,0,1,4.195-2.851,3.286,3.286,0,0,1,2.816,1.765,8.917,8.917,0,0,1,.445,1.443h-1.84c-.015-.055-.033-.122-.05-.188a1.745,1.745,0,0,0-1.75-1.486,1.793,1.793,0,0,0-1.909,1.4,7.25,7.25,0,0,0,.016,3.8,1.911,1.911,0,0,0,2.787,1.114A1.773,1.773,0,0,0-183.139,500.464Z" transform="translate(205.86 -466.445)"/>
  </g>
</svg>
