<svg id="Group_2472" data-name="Group 2472" xmlns="http://www.w3.org/2000/svg" width="20.003" height="20" viewBox="0 0 20.003 20">
  <path id="Path_3460" data-name="Path 3460" d="M-447,188.364q0-2.957,0-5.913a2.241,2.241,0,0,1,2.393-2.393h11.879a2.239,2.239,0,0,1,2.393,2.392q0,5.939,0,11.879a2.241,2.241,0,0,1-2.393,2.393h-11.9A2.238,2.238,0,0,1-447,194.356Q-447,191.36-447,188.364Zm8.332-6.648h-5.757a.836.836,0,0,0-.916.922q0,5.744,0,11.488a.844.844,0,0,0,.929.937h11.488a.842.842,0,0,0,.93-.937q0-5.731,0-11.462a.846.846,0,0,0-.943-.949Z" transform="translate(450.34 -176.723)" fill="#039511"/>
  <path id="Path_3461" data-name="Path 3461" d="M-508.577,132.691a2.229,2.229,0,0,1-2.488-2.174c-.014-.824,0-1.65,0-2.474q0-4.806,0-9.611a2.238,2.238,0,0,1,2.374-2.385q5.991,0,11.981,0a2.24,2.24,0,0,1,2.3,2.49h-11.965a2.086,2.086,0,0,0-2.2,2.185q0,5.821,0,11.643Z" transform="translate(511.073 -116.047)" fill="#039511"/>
  <path id="Path_3462" data-name="Path 3462" d="M-382.96,263.127a2.365,2.365,0,0,1,.2-.288q2.316-2.322,4.638-4.64a1.154,1.154,0,0,1,1.414-.314,1.378,1.378,0,0,1,.855,1.412,1.451,1.451,0,0,1-.348.7q-2.955,2.991-5.94,5.951a1.154,1.154,0,0,1-1.716-.015q-.875-.873-1.733-1.763a1.168,1.168,0,0,1,0-1.681,1.235,1.235,0,0,1,1.306-.49,1.557,1.557,0,0,1,.573.333C-383.46,262.556-383.246,262.82-382.96,263.127Z" transform="translate(392.466 -250.375)" fill="#039511"/>
</svg>
