<svg xmlns="http://www.w3.org/2000/svg" width="30.014" height="20" viewBox="0 0 30.014 20">
  <g id="Group_1695" data-name="Group 1695" transform="translate(398.417 -157.971)">
    <path id="Path_3753" data-name="Path 3753" d="M-374.117,162.786c.139-.065.237-.108.333-.156l3.163-1.579a1.445,1.445,0,0,1,2.21,1.363c0,3.7-.009,7.408.008,11.112a1.478,1.478,0,0,1-2.247,1.364c-1.018-.568-2.084-1.051-3.129-1.571-.1-.048-.2-.093-.322-.154-.041.473-.047.915-.121,1.345a4.207,4.207,0,0,1-3.976,3.439c-2.945.032-5.891.013-8.836.014-2.332,0-4.664-.03-6.995.009a4.331,4.331,0,0,1-4.336-3.64,5.025,5.025,0,0,1-.038-.767c0-3.726.029-7.453-.013-11.179a4.348,4.348,0,0,1,3.617-4.355,5.3,5.3,0,0,1,.8-.045c5.154,0,10.309.022,15.463-.013a4.342,4.342,0,0,1,4.348,3.622C-374.133,161.966-374.142,162.347-374.117,162.786Zm-15.024,5.175a2.126,2.126,0,0,0-2.152-2.132,2.165,2.165,0,0,0-2.129,2.138,2.165,2.165,0,0,0,2.152,2.149A2.127,2.127,0,0,0-389.141,167.961Z" fill="#fff"/>
  </g>
</svg>
