<svg xmlns="http://www.w3.org/2000/svg" width="50" height="50" viewBox="0 0 50 50">
  <g id="Group_2494" data-name="Group 2494" transform="translate(0.225 0.245)">
    <circle id="Ellipse_53" data-name="Ellipse 53" cx="25" cy="25" r="25" transform="translate(-0.225 -0.245)" fill="#d10a11"/>
    <g id="Group_2359" data-name="Group 2359" transform="translate(623.686 131.767)">
      <path id="Path_4542" data-name="Path 4542" d="M-612.911-42.845v-.4q0-7.732,0-15.464a2.68,2.68,0,0,1,2.194-2.783c.8-.2,1.6-.4,2.39-.631a.369.369,0,0,1,.493.189c1.251,1.912,2.516,3.815,3.766,5.728a2.05,2.05,0,0,0,1.587,1.006c-.061.438-.115.868-.182,1.3q-.637,4.069-1.278,8.138c-.049.312-.1.625-.139.939a1.854,1.854,0,0,0,.592,1.626,2.705,2.705,0,0,0,.361.253l-.079.1Z" transform="translate(0 -52.993)" fill="#febaba"/>
      <path id="Path_4543" data-name="Path 4543" d="M-335.871-42.784h-9.769c.126-.131.2-.22.286-.3a2.061,2.061,0,0,0,.631-1.976q-.748-4.755-1.49-9.51c-.029-.186-.054-.372-.085-.582a2.169,2.169,0,0,0,1.69-1.154c1.2-1.861,2.44-3.7,3.65-5.559a.41.41,0,0,1,.549-.2c.867.249,1.748.451,2.616.7a2.627,2.627,0,0,1,1.92,2.548q0,7.867,0,15.734Z" transform="translate(-248.485 -53.045)" fill="#febaba"/>
      <path id="Path_4544" data-name="Path 4544" d="M-451.252,3.059c-.3-.318-.569-.609-.847-.889-.83-.836-1.67-1.661-2.491-2.507a.637.637,0,0,1-.164-.467c.29-1.933.6-3.862.9-5.793q.408-2.595.814-5.19c0-.022.02-.05.012-.066-.249-.5.147-.789.383-1.118.449-.624.914-1.236,1.4-1.89.156.2.3.385.437.571q.669.9,1.334,1.8c.052.07.135.172.116.229a3.577,3.577,0,0,0,.122,1.733c.334,2.269.7,4.532,1.059,6.8.148.937.3,1.875.452,2.811a.634.634,0,0,1-.184.634C-449.011.8-450.1,1.906-451.252,3.059Z" transform="translate(-147.401 -97.071)" fill="#febaba"/>
      <path id="Path_4545" data-name="Path 4545" d="M-505.371-119.012c.372.786.728,1.529,1.069,2.278a.366.366,0,0,1-.038.3c-1.376,2.1-2.759,4.195-4.172,6.339l-3.746-5.031-3.731,5.011c-.071-.09-.136-.161-.188-.241q-1.981-3-3.964-6a.422.422,0,0,1-.035-.487c.352-.7.68-1.421,1.029-2.158.135.07.245.122.35.181q3.13,1.766,6.255,3.54a.506.506,0,0,0,.581-.005q3.092-1.763,6.2-3.506C-505.646-118.861-505.528-118.925-505.371-119.012Z" transform="translate(-86.374)" fill="#febaba"/>
    </g>
  </g>
</svg>
