<svg xmlns="http://www.w3.org/2000/svg" width="50" height="50" viewBox="0 0 50 50">
  <g id="Group_2493" data-name="Group 2493" transform="translate(-32 -1865)">
    <circle id="Ellipse_77" data-name="Ellipse 77" cx="25" cy="25" r="25" transform="translate(32 1865)" fill="#d10a11"/>
    <g id="Group_508" data-name="Group 508" transform="translate(44.857 1876.429)">
      <path id="Path_3810" data-name="Path 3810" d="M-350.023,265.541c.212.32.364.555.521.787q1.853,2.746,3.7,5.492a1.009,1.009,0,0,1-.559,1.627.971.971,0,0,1-1.132-.5q-1.281-1.891-2.557-3.787-4.73-7.006-9.453-14.016a2.151,2.151,0,0,1-.35-.851.915.915,0,0,1,.6-.952,1,1,0,0,1,1.133.256,2.4,2.4,0,0,1,.214.288q2.411,3.57,4.816,7.144a.638.638,0,0,0,.607.324c2.439-.011,4.877-.006,7.316-.006h.422c.01.111.026.2.027.3,0,1.187-.007,2.373.008,3.56,0,.282-.1.345-.357.344-1.48-.01-2.961-.006-4.442-.006Z" transform="translate(365.158 -244.916)" fill="#febaba"/>
      <path id="Path_3811" data-name="Path 3811" d="M-430.066,381.123c-.133.006-.237.015-.341.015q-4.883,0-9.767,0a.9.9,0,0,1-.476-.055.745.745,0,0,1-.321-.472c-.029-1.044-.022-2.09-.012-3.135,0-.362.215-.529.637-.529q2.744-.005,5.488,0c.588,0,1.176-.008,1.764.008a.491.491,0,0,1,.351.158c.88,1.283,1.746,2.575,2.615,3.866A1.055,1.055,0,0,1-430.066,381.123Z" transform="translate(440.992 -360.515)" fill="#febaba"/>
      <path id="Path_3812" data-name="Path 3812" d="M-269.863,132.166a10.779,10.779,0,0,1,1.72-5.214c.257-.428.553-.834.845-1.24a.985.985,0,0,1,.27-.186.969.969,0,0,1,.028.347c-.309.994-.662,1.976-.941,2.979a9.76,9.76,0,0,0-.385,3.446,3.086,3.086,0,0,0,2.831,3.065c.891.131,1.8.161,2.689.278a12.369,12.369,0,0,1,1.945.369,3.716,3.716,0,0,1,2.583,2.936,15.385,15.385,0,0,1,.235,1.575c.025.181.012.4-.214.394a.548.548,0,0,1-.366-.273c-.253-.455-.466-.932-.706-1.395a3.346,3.346,0,0,0-3-1.81c-.966-.059-1.937-.054-2.9-.141a4.905,4.905,0,0,1-3.727-1.871A5.2,5.2,0,0,1-269.863,132.166Z" transform="translate(281.045 -125.526)" fill="#febaba"/>
      <path id="Path_3813" data-name="Path 3813" d="M-176.462,158.962c-.057.258-.15.77-.292,1.268a.339.339,0,0,0,.16.45,5.7,5.7,0,0,1,2.223,2.622,5.758,5.758,0,0,1-.1,4.046,8.321,8.321,0,0,1-.428,1.055.482.482,0,0,1-.353.234c-.2,0-.223-.192-.209-.369.037-.455.1-.911.095-1.365a13.537,13.537,0,0,0-.129-2.105,3.659,3.659,0,0,0-1.726-2.358c-.394-.27-.814-.5-1.224-.746a.787.787,0,0,1-.428-1.064c.169-.559.388-1.1.549-1.666a1.6,1.6,0,0,0-.438-1.59,4.735,4.735,0,0,0-1.971-1.169c-.56-.2-1.14-.348-1.707-.531a1.05,1.05,0,0,1-.262-.191c.085-.073.166-.2.257-.211a12.7,12.7,0,0,1,1.811-.078,5.465,5.465,0,0,1,2.887,1A3.136,3.136,0,0,1-176.462,158.962Z" transform="translate(199.58 -153.243)" fill="#febaba"/>
      <path id="Path_3814" data-name="Path 3814" d="M-111.855,377.314h1.463c.008.108.021.2.021.3,0,1.175-.006,2.35.007,3.524,0,.266-.07.374-.347.356-.314-.02-.631-.008-.946-.006-.147,0-.251-.025-.25-.212.007-1.294.009-2.588.013-3.882C-111.893,377.373-111.875,377.355-111.855,377.314Z" transform="translate(133.408 -360.862)" fill="#febaba"/>
      <path id="Path_3815" data-name="Path 3815" d="M-70.8,379.024c0,.6-.008,1.195,0,1.792,0,.231-.081.307-.3.3-.315-.013-.63-.009-.945,0-.185,0-.281-.054-.28-.258q.007-1.841,0-3.682c0-.2.087-.263.276-.258.326.01.652.014.977,0,.221-.01.276.083.273.287C-70.806,377.807-70.8,378.416-70.8,379.024Z" transform="translate(96.412 -360.486)" fill="#febaba"/>
    </g>
  </g>
</svg>
