<svg xmlns="http://www.w3.org/2000/svg" width="15" height="15" viewBox="0 0 15 15">
  <g id="Group_1658" data-name="Group 1658" transform="translate(515.98 -167.91)">
    <path id="Path_3755" data-name="Path 3755" d="M-515.98,175.407a7.5,7.5,0,0,1,7.5-7.5,7.5,7.5,0,0,1,7.5,7.5,7.5,7.5,0,0,1-7.519,7.5A7.505,7.505,0,0,1-515.98,175.407Zm3.05.008a4.455,4.455,0,0,0,4.443,4.445,4.455,4.455,0,0,0,4.457-4.448,4.454,4.454,0,0,0-4.452-4.452A4.454,4.454,0,0,0-512.93,175.415Zm4.063,5.193a5.228,5.228,0,0,1-3.125-1.346l-1.079,1.08a6.718,6.718,0,0,0,4.2,1.793Zm4.236-8.713a5.274,5.274,0,0,1,.936,1.447,5.286,5.286,0,0,1,.414,1.678h1.528a6.717,6.717,0,0,0-1.8-4.2Zm-.451,7.469a5.2,5.2,0,0,1-3.007,1.244v1.519a6.538,6.538,0,0,0,4.079-1.694Zm-10.118-4.343h1.522a5.19,5.19,0,0,1,1.234-3l-1.075-1.075A6.6,6.6,0,0,0-515.2,175.021Zm3.343-3.582a5.221,5.221,0,0,1,2.984-1.228v-1.527a6.711,6.711,0,0,0-4.065,1.676Zm8.434,8.424a6.709,6.709,0,0,0,1.668-4.064h-1.529a5.2,5.2,0,0,1-1.226,2.989Zm-4.669-9.651a5.208,5.208,0,0,1,2.878,1.132l1.079-1.086a6.692,6.692,0,0,0-3.957-1.575Zm-7.114,5.587a6.7,6.7,0,0,0,1.579,3.96l1.082-1.084a5.217,5.217,0,0,1-1.135-2.876Z" fill="#8292a8"/>
    <path id="Path_3756" data-name="Path 3756" d="M-395.573,287.436c.456.313.909.615,1.35.934a.545.545,0,0,1,.2.3c.046.217-.1.386-.346.425-.365.059-.731.111-1.1.166-.151.023-.3.039-.454.071a.133.133,0,0,0-.079.1c.026.438.059.876.09,1.315.007.095.013.19.019.285a.363.363,0,0,1-.215.374.364.364,0,0,1-.437-.078l-1.133-1.044c-.027-.025-.055-.049-.1-.086-.2.182-.4.362-.594.544s-.4.368-.594.551a.39.39,0,0,1-.487.111.4.4,0,0,1-.2-.443c.04-.49.069-.982.107-1.472.009-.11-.016-.154-.139-.17-.5-.066-.993-.145-1.489-.223a.381.381,0,0,1-.35-.3.378.378,0,0,1,.194-.43q.6-.414,1.2-.825c.047-.033.093-.067.151-.108l-.492-.857c-.11-.193-.219-.386-.331-.578a.38.38,0,0,1,.014-.459.378.378,0,0,1,.444-.12c.474.145.95.287,1.421.44.126.041.182.026.232-.106.171-.46.359-.914.536-1.371a.408.408,0,0,1,.372-.3.4.4,0,0,1,.384.3c.185.466.369.932.549,1.4.036.093.073.116.174.084.467-.149.939-.283,1.407-.432a.411.411,0,0,1,.5.1.418.418,0,0,1-.019.515C-395.045,286.513-395.306,286.972-395.573,287.436Zm-2.2-1.92c-.023.051-.029.065-.035.079l-.321.81c-.134.337-.281.407-.629.3l-.918-.282c.186.325.356.616.521.911a.38.38,0,0,1-.124.553c-.124.09-.253.173-.38.26l-.484.333c.356.054.667.1.978.147a.4.4,0,0,1,.408.477c0,.079-.013.158-.018.237-.017.248-.033.5-.052.786l.723-.671a.4.4,0,0,1,.648,0c.237.215.472.433.732.671-.024-.356-.046-.676-.066-1s.095-.458.427-.5c.3-.042.608-.092.953-.146l-.79-.543c-.305-.209-.34-.358-.158-.676l.48-.835-.924.283c-.337.1-.489.031-.618-.295Z" transform="translate(-110.811 -112.484)" fill="#8292a8"/>
  </g>
</svg>
