<svg id="Group_2573" data-name="Group 2573" xmlns="http://www.w3.org/2000/svg" width="51.438" height="51.439" viewBox="0 0 51.438 51.439">
  <path id="Path_3794" data-name="Path 3794" d="M-432.011,181.046a25.757,25.757,0,0,1,25.7,25.752,25.762,25.762,0,0,1-25.769,25.687,25.766,25.766,0,0,1-25.67-25.785A25.764,25.764,0,0,1-432.011,181.046Zm7.894,19.827c0,1.579.02,3.1-.01,4.62a7.535,7.535,0,0,1-.217,1.765c-.808,3.059-4.5,5.529-8.035,5.4-3.637-.128-8.05-3.263-7.581-8.123.116-1.2.017-2.416.017-3.639H-443.9c0,1.693-.033,3.341.015,4.986a9.738,9.738,0,0,0,.325,2.31,11.173,11.173,0,0,0,6.423,7.228,32.735,32.735,0,0,0,3.09,1.117v2.121h-3.885v3.9h11.8v-3.937h-3.881v-2.166c.432-.107.838-.183,1.228-.308,3.925-1.258,6.877-3.608,8.2-7.622.81-2.454.351-5.025.4-7.547,0-.03-.048-.06-.088-.107Zm-13.73-.061h-.115c0,1.4-.028,2.8.006,4.2a5.978,5.978,0,0,0,5.664,5.7,5.96,5.96,0,0,0,6.2-5.917c.02-2.411.012-4.822,0-7.232a11.523,11.523,0,0,0-.126-1.842,5.949,5.949,0,0,0-5.789-4.793,5.812,5.812,0,0,0-5.8,4.824A42.174,42.174,0,0,0-437.848,200.812Z" transform="translate(457.749 -181.046)" fill="#d10a11"/>
</svg>
