<svg id="Group_2572" data-name="Group 2572" xmlns="http://www.w3.org/2000/svg" width="35.96" height="29.394" viewBox="0 0 35.96 29.394">
  <path id="Path_3791" data-name="Path 3791" d="M-410.968,210.611q-6.467,0-12.933,0a4.9,4.9,0,0,1-5.019-5q-.016-7.251,0-14.5a4.9,4.9,0,0,1,5.022-4.992c1.365,0,2.73-.011,4.094.008a.665.665,0,0,0,.649-.346c.491-.789.954-1.6,1.5-2.348a10.467,10.467,0,0,1,1.435-1.572,2.739,2.739,0,0,1,1.878-.639q3.386-.01,6.773,0a3.414,3.414,0,0,1,2.812,1.533c.641.87,1.227,1.783,1.788,2.707a1.187,1.187,0,0,0,1.21.674c1.26-.058,2.525-.019,3.787-.017a4.879,4.879,0,0,1,4.983,4.911q.04,7.327,0,14.655a4.887,4.887,0,0,1-5.01,4.925Q-404.483,210.613-410.968,210.611Zm-.021-3.274c4.3,0,8.6-.021,12.9.013a1.769,1.769,0,0,0,1.853-1.851q-.044-7.137,0-14.274a1.751,1.751,0,0,0-1.857-1.845c-1.516.05-3.036.011-4.554.012a2.47,2.47,0,0,1-1.983-.821c-.461-.54-.874-1.123-1.283-1.7-.483-.687-.921-1.406-1.42-2.08a.866.866,0,0,0-.611-.281c-1.709-.022-3.419-.013-5.128-.013-1.389,0-1.39,0-2.16,1.177-.508.778-.99,1.574-1.522,2.335a3.048,3.048,0,0,1-2.764,1.4c-1.427-.048-2.858.028-4.285-.023a1.75,1.75,0,0,0-1.855,1.846q.045,7.1,0,14.2a1.8,1.8,0,0,0,1.933,1.929C-419.485,207.31-415.237,207.337-410.989,207.337Z" transform="translate(428.929 -181.218)" fill="#7a7a7a"/>
  <path id="Path_3792" data-name="Path 3792" d="M-292.67,288.052a8.16,8.16,0,0,1,8.172,8.163,8.184,8.184,0,0,1-8.192,8.153,8.188,8.188,0,0,1-8.152-8.154A8.16,8.16,0,0,1-292.67,288.052Zm.008,13.042a4.889,4.889,0,0,0,4.892-4.917,4.93,4.93,0,0,0-4.909-4.88,4.924,4.924,0,0,0-4.891,4.935A4.891,4.891,0,0,0-292.662,301.094Z" transform="translate(310.647 -279.874)" fill="#7a7a7a"/>
  <path id="Path_3793" data-name="Path 3793" d="M-66.055,310.886a1.631,1.631,0,0,1,1.619-1.633,1.651,1.651,0,0,1,1.651,1.647,1.673,1.673,0,0,1-1.647,1.623A1.654,1.654,0,0,1-66.055,310.886Z" transform="translate(93.832 -299.452)" fill="#7a7a7a"/>
</svg>
