<svg xmlns="http://www.w3.org/2000/svg" width="34.886" height="35" viewBox="0 0 34.886 35">
  <g id="Group_1930" data-name="Group 1930" transform="translate(442.854 -139.611)">
    <path id="Path_4113" data-name="Path 4113" d="M-425.244,152.786l.972-.477a7.237,7.237,0,0,1-2.424-6.284,7.14,7.14,0,0,1,2.616-4.833,7.493,7.493,0,0,1,9.764.481,7.4,7.4,0,0,1-.34,10.641,11.705,11.705,0,0,1,6.313,7.264c-.748-.267-1.486-.589-2.254-.792a7.171,7.171,0,0,0-4.265.245.979.979,0,0,1-.61,0,7.279,7.279,0,0,0-9.794,5.615,7.161,7.161,0,0,0,2.012,6.433c.955.995,1.957,1.945,2.937,2.916.078.078.153.16.24.252a1.385,1.385,0,0,1-1.018.358q-4.43-.005-8.859,0c-3.763,0-7.525-.017-11.288.012a1.526,1.526,0,0,1-1.61-1.685,11.559,11.559,0,0,1,6.594-10.236c.078-.04.15-.09.231-.138a7.359,7.359,0,0,1,.014-10.716A7.368,7.368,0,0,1-425.244,152.786Z" transform="translate(0 0)" fill="#d10a11"/>
    <path id="Path_4114" data-name="Path 4114" d="M-139.417,460.577a4.492,4.492,0,0,1,2.926.831.42.42,0,0,0,.607-.011,4.481,4.481,0,0,1,5.427.168,4.415,4.415,0,0,1,1.027,5.2,5.152,5.152,0,0,1-.91,1.308c-1.558,1.6-3.147,3.171-4.73,4.748a1.447,1.447,0,0,1-2.229,0c-1.589-1.586-3.185-3.165-4.76-4.765a4.5,4.5,0,0,1-.446-5.875A4,4,0,0,1-139.417,460.577Z" transform="translate(-278.973 -298.995)" fill="#d10a11"/>
  </g>
</svg>
