<svg id="Group_2485" data-name="Group 2485" xmlns="http://www.w3.org/2000/svg" width="50" height="50" viewBox="0 0 50 50">
  <circle id="Ellipse_72" data-name="Ellipse 72" cx="25" cy="25" r="25" transform="translate(0)" fill="#d10a11"/>
  <g id="Group_503" data-name="Group 503" transform="translate(11.43 11.428)">
    <path id="Path_3796" data-name="Path 3796" d="M-410.356,192.843A14.293,14.293,0,0,1-424.647,207.1a14.312,14.312,0,0,1-14.28-14.319,14.291,14.291,0,0,1,14.337-14.253A14.291,14.291,0,0,1-410.356,192.843Zm-11.511-3.752-.033,0c0-.3.006-.608,0-.912a2.767,2.767,0,0,0-2.479-2.666,2.678,2.678,0,0,0-2.913,2.153,13.274,13.274,0,0,0-.085,2.312,2.748,2.748,0,0,0,2.474,2.666,2.717,2.717,0,0,0,2.923-2.152A11.8,11.8,0,0,0-421.867,189.091Zm.114,3.732c.886.322,1.374.788,1.408,1.5.049,1.031.012,2.067.012,3.116h-8.622c0-1.045-.039-2.068.014-3.086a1.571,1.571,0,0,1,1.037-1.386c.121-.052.243-.1.367-.152l-.778-1.082a2.935,2.935,0,0,0-1.975,2.715c-.012.982-.008,1.965,0,2.947a1.343,1.343,0,0,0,1.379,1.4q4.275.011,8.55,0a1.34,1.34,0,0,0,1.367-1.369c.01-1,.008-1.992,0-2.988a2.5,2.5,0,0,0-.093-.654,2.937,2.937,0,0,0-1.871-2.064Zm-2.226-10.315h0c0-.221.011-.442,0-.662a.661.661,0,0,0-.658-.661.65.65,0,0,0-.664.651c-.018.454-.019.91,0,1.365a.655.655,0,0,0,.675.641.662.662,0,0,0,.644-.631C-423.964,182.978-423.978,182.743-423.978,182.508Zm-10.961,9.641c-.221,0-.442-.01-.662,0a.66.66,0,0,0-.668.65.653.653,0,0,0,.643.673c.454.019.91.019,1.364,0a.656.656,0,0,0,.649-.668.663.663,0,0,0-.664-.655C-434.5,192.139-434.719,192.149-434.939,192.15Zm20.558,1.328h0c.234,0,.47.011.7,0a.661.661,0,0,0,.665-.654.653.653,0,0,0-.647-.668c-.454-.018-.91-.018-1.365,0a.653.653,0,0,0-.644.671.661.661,0,0,0,.627.648C-414.824,193.492-414.6,193.478-414.382,193.478Zm-9.6,9.638h0c0-.234.015-.47,0-.7a.66.66,0,0,0-.648-.627.654.654,0,0,0-.671.644c-.018.454-.018.91,0,1.365a.653.653,0,0,0,.668.648.663.663,0,0,0,.654-.665C-423.966,203.558-423.977,203.336-423.977,203.116Zm-6.764-17.02c-.06-.185-.064-.316-.131-.386a14.479,14.479,0,0,0-1.223-1.214.556.556,0,0,0-.78.123.6.6,0,0,0-.045.828,7.4,7.4,0,0,0,1.084,1.07.815.815,0,0,0,.679.046C-430.976,186.492-430.865,186.244-430.741,186.1Zm14.5-1.179c-.063-.082-.163-.328-.34-.41a.743.743,0,0,0-.645.013,7.727,7.727,0,0,0-1.16,1.162.7.7,0,0,0,.006.64.824.824,0,0,0,.563.327C-417.4,186.693-416.24,185.481-416.238,184.917Zm-16.11,16.3c.042-.011.178-.006.246-.072a16.855,16.855,0,0,0,1.234-1.257.533.533,0,0,0-.138-.742.546.546,0,0,0-.753-.091,8.373,8.373,0,0,0-1.19,1.189A.636.636,0,0,0-432.348,201.217Zm14.388-2.257c-.1.078-.354.193-.433.382a.8.8,0,0,0,.056.676,5.9,5.9,0,0,0,1.044,1.051.776.776,0,0,0,.681.068.832.832,0,0,0,.358-.578C-416.2,200.151-417.4,198.97-417.96,198.96Z" transform="translate(438.927 -178.529)" fill="#febaba"/>
  </g>
</svg>
