<svg xmlns="http://www.w3.org/2000/svg" width="35.92" height="35.979" viewBox="0 0 35.92 35.979">
  <g id="Group_2498" data-name="Group 2498" transform="translate(0)">
    <path id="Path_3797" data-name="Path 3797" d="M-412.322,268.987l10.592,10.962a2,2,0,0,1,.239-.4q2.357-2.45,4.726-4.887c.49-.505.791-.506,1.277-.005q3.407,3.516,6.811,7.035c.489.506.489.828,0,1.315a11.431,11.431,0,0,1-6.64,3.241,16.82,16.82,0,0,1-11.759-2.889,26.353,26.353,0,0,1-9.725-11.015,18.284,18.284,0,0,1-1.8-7.9,12.77,12.77,0,0,1,3.312-8.966c.442-.477.766-.483,1.212-.022q3.437,3.547,6.871,7.1c.465.481.462.8-.011,1.286q-2.364,2.443-4.733,4.88A2.825,2.825,0,0,1-412.322,268.987Z" transform="translate(418.608 -250.422)" fill="#fff"/>
    <g id="Group_427" data-name="Group 427" transform="translate(12.953 0)">
      <path id="Path_3798" data-name="Path 3798" d="M-252.708,325.582a5.014,5.014,0,0,0-1.641,2.35.389.389,0,0,1-.415.289,5.26,5.26,0,0,0-1.375.219,1.889,1.889,0,0,0-1.3,1.845,4.6,4.6,0,0,0,.3,2.257.681.681,0,0,1,.03.142c-.956.342-1.122,1.213-1.279,2.072-.1.556-.151,1.121-.22,1.683-.016.134-.026.244-.208.243-1.9,0-3.792,0-5.688,0a1.076,1.076,0,0,1-.14-.019,1.269,1.269,0,0,1-.015-.163c.069-1.947.1-3.9.221-5.841a19.622,19.622,0,0,1,.938-5.235,5.117,5.117,0,0,1,1.44-2.356,2.232,2.232,0,0,1,1.442-.548,1.7,1.7,0,0,1,.661.144,4.8,4.8,0,0,0,4.139.06,1.583,1.583,0,0,1,2.155.58,5.743,5.743,0,0,1,.469.947C-253.024,324.677-252.878,325.117-252.708,325.582Z" transform="translate(264.667 -313.282)" fill="#fff"/>
      <path id="Path_3799" data-name="Path 3799" d="M-144.581,365.241h-9.353c-.166-.732-.3-1.428-.484-2.109a2.842,2.842,0,0,0-1.12-1.762,2.494,2.494,0,0,1,.083-.25,5.577,5.577,0,0,0,.319-2.424,1.85,1.85,0,0,0-.834-1.479,5.138,5.138,0,0,1,1.417-2.21,1.969,1.969,0,0,1,1.25-.466,1.216,1.216,0,0,1,.486.106,4.656,4.656,0,0,0,3.541.2.552.552,0,0,0,.122-.051,1.361,1.361,0,0,1,1.163-.2,2.385,2.385,0,0,1,1.236.806,7.2,7.2,0,0,1,1.318,2.841,23.5,23.5,0,0,1,.7,4.454C-144.68,363.522-144.636,364.351-144.581,365.241Z" transform="translate(167.548 -341.783)" fill="#fff"/>
      <path id="Path_3800" data-name="Path 3800" d="M-226.825,247.563a4.2,4.2,0,0,1-2.361-.675,3.129,3.129,0,0,1-1.287-2.85,24.117,24.117,0,0,1,.3-3.075,3,3,0,0,1,2.54-2.386,4.682,4.682,0,0,1,2.467.357,3.145,3.145,0,0,1,1.87,3.761,21.621,21.621,0,0,1-.691,2.522,3.139,3.139,0,0,1-2.127,2.224A5.754,5.754,0,0,1-226.825,247.563Z" transform="translate(234.117 -238.538)" fill="#fff"/>
      <path id="Path_3801" data-name="Path 3801" d="M-145.6,287.48c.217-.252.435-.5.651-.755a1.236,1.236,0,0,0,.246-1.248,5.942,5.942,0,0,1-.3-2.263,3.011,3.011,0,0,1,2.527-2.8,3.186,3.186,0,0,1,3.755,3.086,8.337,8.337,0,0,1,.042,1.2,1.291,1.291,0,0,0,.581,1.185c.248.172.5.337.789.528-.377.109-.726.216-1.077.31a2.871,2.871,0,0,0-1.173.593,3.489,3.489,0,0,1-1.781.855,3.457,3.457,0,0,1-2.095-.442,1.534,1.534,0,0,0-.6-.172c-.519-.024-1.039-.008-1.559-.008Z" transform="translate(158.28 -275.763)" fill="#fff"/>
      <path id="Path_3802" data-name="Path 3802" d="M-198,426.693c.14-.734.22-1.417.409-2.066a1.176,1.176,0,0,1,1.276-.97c.242.025.474.173.714.182a2.644,2.644,0,0,0,.958-.1,1.086,1.086,0,0,1,1.314.39,3.386,3.386,0,0,1,.5,1.653c.03.289.03.58.046.912Z" transform="translate(205.101 -403.29)" fill="#fff"/>
      <path id="Path_3803" data-name="Path 3803" d="M-189.219,384.575a1.721,1.721,0,0,1,.52-1.563,2.172,2.172,0,0,1,2.488-.017,1.356,1.356,0,0,1,.527,1.115,11.4,11.4,0,0,1-.113,1.417,1.523,1.523,0,0,1-1.7,1.359,1.545,1.545,0,0,1-1.63-1.523C-189.169,385.1-189.19,384.838-189.219,384.575Z" transform="translate(197.262 -366.766)" fill="#fff"/>
    </g>
  </g>
</svg>
