<svg id="Group_2925" data-name="Group 2925" xmlns="http://www.w3.org/2000/svg" width="50" height="50" viewBox="0 0 50 50">
  <circle id="Ellipse_70" data-name="Ellipse 70" cx="25" cy="25" r="25" transform="translate(0 0)" fill="#d10a11"/>
  <g id="Group_499" data-name="Group 499" transform="translate(8.572 11.427)">
    <path id="Path_3790" data-name="Path 3790" d="M-526.1,267.279a10.109,10.109,0,0,1-4.537,1.7,20.542,20.542,0,0,1-6.513.011,10.982,10.982,0,0,1-3.853-1.217,6.507,6.507,0,0,1-1.284-1.009,2.51,2.51,0,0,1-.7-1.872c0-4.352.021-8.7-.01-13.055a3.17,3.17,0,0,1,1.528-2.848,10.1,10.1,0,0,1,3.749-1.4,19.879,19.879,0,0,1,5.32-.3,14.759,14.759,0,0,1,4.927,1.1,5.279,5.279,0,0,1,1.865,1.277,2.641,2.641,0,0,1,.714,1.832c-.009,1.92,0,3.84,0,5.761v.415c.626-.212,1.214-.443,1.819-.612a18.767,18.767,0,0,1,6.14-.6,16.561,16.561,0,0,1,4.643.855,6.028,6.028,0,0,1,2.447,1.458,2.683,2.683,0,0,1,.786,1.952c-.015,1.383-.019,2.768.018,4.151a3,3,0,0,1-1.336,2.609,8.889,8.889,0,0,1-3.674,1.479,19.918,19.918,0,0,1-8.634-.13A8.252,8.252,0,0,1-526.1,267.279ZM-540.746,254.3c0,.487-.025.985.012,1.478a.824.824,0,0,0,.259.571,6.385,6.385,0,0,0,1.461.8,16.822,16.822,0,0,0,9.026.343,5.964,5.964,0,0,0,2.489-1.046.849.849,0,0,0,.339-.5c.044-.553.016-1.112.016-1.645A19.144,19.144,0,0,1-540.746,254.3Zm15.844,9.191c0,.462.026.925-.008,1.383a.745.745,0,0,0,.391.782,10.314,10.314,0,0,0,1.814.842,17.128,17.128,0,0,0,8.129.282,7.088,7.088,0,0,0,2.772-1.039c.2-.136.45-.344.472-.542a15.309,15.309,0,0,0,.022-1.705A19.116,19.116,0,0,1-524.9,263.495Zm-15.844-.128c0,.477-.03.962.013,1.441a.93.93,0,0,0,.291.63,6,6,0,0,0,1.432.772,16.8,16.8,0,0,0,9.054.333,5.916,5.916,0,0,0,2.452-1.033.852.852,0,0,0,.342-.5c.044-.552.016-1.109.016-1.642A19.169,19.169,0,0,1-540.746,263.366Zm0-4.424c0,.427-.024.852.011,1.272a.786.786,0,0,0,.24.542,6.772,6.772,0,0,0,1.49.816,16.775,16.775,0,0,0,9.052.336,5.931,5.931,0,0,0,2.452-1.035.86.86,0,0,0,.34-.5c.047-.478.016-.964.016-1.428A19.121,19.121,0,0,1-540.746,258.942Z" transform="translate(543.001 -240.808)" fill="#febaba"/>
    <path id="Path_3791" data-name="Path 3791" d="M-503.7,171.239l-1.715-3.949,2.054-.9,1.716,3.95Z" transform="translate(508.223 -166.015)" fill="#febaba"/>
    <path id="Path_3792" data-name="Path 3792" d="M-388.773,170.336l1.714-3.95,2.055.891-1.711,3.951Z" transform="translate(400.313 -166.008)" fill="#febaba"/>
    <path id="Path_3793" data-name="Path 3793" d="M-434.456,165.574h-2.19v-4.243h2.19Z" transform="translate(444.604 -161.331)" fill="#febaba"/>
  </g>
</svg>
