<svg xmlns="http://www.w3.org/2000/svg" width="50" height="50" viewBox="0 0 50 50">
  <g id="Group_2489" data-name="Group 2489" transform="translate(-225 -1618)">
    <circle id="Ellipse_51" data-name="Ellipse 51" cx="25" cy="25" r="25" transform="translate(225 1618)" fill="#d10a11"/>
    <g id="Group_285" data-name="Group 285" transform="translate(235 1629.428)">
      <path id="Path_3768" data-name="Path 3768" d="M-383.025,331.647a14.244,14.244,0,0,0,13.642-15.2,14.119,14.119,0,0,0-13.745-13.325c.228.313.5.64.724,1,.766,1.249,1.526,2.5,2.259,3.768.22.381.4.554.9.432,1.265-.306,2.558-.494,3.83-.774a1.279,1.279,0,0,1,1.385.3,1.24,1.24,0,0,1,.087,1.414c-.586,1.431-1.154,2.87-1.738,4.328,1.358.816,2.635,1.672,3.993,2.375,1.657.858,1.616,1.943,0,2.782-1.372.713-2.664,1.579-4,2.38.613,1.529,1.236,2.979,1.76,4.463a1.483,1.483,0,0,1-.145,1.244,1.528,1.528,0,0,1-1.207.339,38.877,38.877,0,0,1-3.9-.766c-.559-.14-.764.062-1.01.484C-381.112,328.487-382.073,330.063-383.025,331.647Zm-1.115-28.571a14.251,14.251,0,0,0-13.814,14.8,14.223,14.223,0,0,0,13.717,13.75c-.3-.461-.621-.924-.913-1.4-.69-1.134-1.381-2.268-2.042-3.419a.65.65,0,0,0-.855-.4c-1.333.316-2.686.552-4.031.817a1.112,1.112,0,0,1-1.356-1.542c.24-.666.521-1.317.781-1.975q.509-1.291,1.013-2.58L-396,318.49c-1.168-.705-1.161-1.558.018-2.269l4.352-2.626c-.611-1.531-1.2-3.018-1.8-4.5a.991.991,0,0,1,.186-1.257,1.763,1.763,0,0,1,1.18-.308c1.354.205,2.7.48,4.035.8a.616.616,0,0,0,.807-.369q1.179-2.015,2.4-4A10.076,10.076,0,0,1-384.14,303.076Zm.481,3.222c-.784,1.306-1.516,2.512-2.233,3.727a1.272,1.272,0,0,1-1.557.659c-1.039-.246-2.094-.422-3.235-.646.479,1.195.927,2.29,1.359,3.392a1.15,1.15,0,0,1-.552,1.68c-.622.386-1.255.755-1.883,1.132l-1.861,1.122c1.294.777,2.473,1.479,3.645,2.191.856.519.978.892.609,1.824-.423,1.072-.854,2.141-1.319,3.307,1.071-.21,2.03-.4,2.992-.585,1.218-.229,1.33-.172,1.985.914l2.055,3.41c.777-1.3,1.5-2.483,2.2-3.682a1.3,1.3,0,0,1,1.6-.7c1.035.251,2.09.417,3.214.635-.485-1.217-.941-2.339-1.378-3.467a1.1,1.1,0,0,1,.535-1.564c.544-.337,1.1-.658,1.647-.99.692-.419,1.381-.842,2.133-1.3-1.274-.768-2.448-1.476-3.623-2.183-.86-.517-1-.9-.638-1.811.427-1.077.86-2.15,1.326-3.314-1.1.21-2.1.4-3.109.6-1.035.2-1.225.121-1.783-.8C-382.219,308.69-382.91,307.541-383.658,306.3Z" transform="translate(397.963 -303.076)" fill="#febaba"/>
      <path id="Path_3769" data-name="Path 3769" d="M-333.978,372.418a5.509,5.509,0,0,1,5.494-5.507,5.509,5.509,0,0,1,5.509,5.493,5.518,5.518,0,0,1-5.5,5.509A5.511,5.511,0,0,1-333.978,372.418Zm5.484-3.31a3.329,3.329,0,0,0-3.287,3.287,3.327,3.327,0,0,0,3.322,3.322,3.329,3.329,0,0,0,3.287-3.288A3.323,3.323,0,0,0-328.494,369.108Z" transform="translate(342.783 -358.127)" fill="#febaba"/>
    </g>
  </g>
</svg>
