<svg xmlns="http://www.w3.org/2000/svg" width="25.775" height="25" viewBox="0 0 25.775 25">
  <g id="Group_428" data-name="Group 428" transform="translate(418.608 -236.554)">
    <path id="Path_3797" data-name="Path 3797" d="M-414.1,264.753l7.6,7.617a1.382,1.382,0,0,1,.172-.279q1.692-1.7,3.392-3.4c.351-.351.568-.352.916,0q2.444,2.443,4.887,4.888c.351.351.351.575,0,.914a8.31,8.31,0,0,1-4.765,2.252,12.375,12.375,0,0,1-8.438-2.008,18.515,18.515,0,0,1-6.979-7.654,12.374,12.374,0,0,1-1.295-5.492,8.71,8.71,0,0,1,2.376-6.23c.317-.332.55-.335.87-.016q2.466,2.464,4.93,4.931c.334.334.332.553-.008.893q-1.7,1.7-3.4,3.391A2.037,2.037,0,0,1-414.1,264.753Z" transform="translate(0 -15.298)" fill="#039511"/>
    <g id="Group_427" data-name="Group 427" transform="translate(-409.313 236.554)">
      <path id="Path_3798" data-name="Path 3798" d="M-256.085,324.647a3.485,3.485,0,0,0-1.178,1.633.279.279,0,0,1-.3.2,3.887,3.887,0,0,0-.987.152,1.316,1.316,0,0,0-.934,1.282,3.107,3.107,0,0,0,.212,1.568.456.456,0,0,1,.021.1c-.686.238-.8.843-.918,1.44-.073.386-.108.779-.158,1.169-.012.093-.019.169-.15.169q-2.041,0-4.081,0a.813.813,0,0,1-.1-.013.865.865,0,0,1-.011-.114c.05-1.353.072-2.708.159-4.059a13.25,13.25,0,0,1,.673-3.638A3.539,3.539,0,0,1-262.8,322.9a1.632,1.632,0,0,1,1.034-.381,1.258,1.258,0,0,1,.474.1,3.547,3.547,0,0,0,2.97.042,1.157,1.157,0,0,1,1.547.4,3.942,3.942,0,0,1,.337.658C-256.312,324.019-256.207,324.324-256.085,324.647Z" transform="translate(264.667 -316.1)" fill="#039511"/>
      <path id="Path_3799" data-name="Path 3799" d="M-147.8,361.976h-6.712c-.119-.509-.214-.993-.347-1.466a1.968,1.968,0,0,0-.8-1.224,1.725,1.725,0,0,1,.059-.174,3.761,3.761,0,0,0,.229-1.684,1.277,1.277,0,0,0-.6-1.028,3.561,3.561,0,0,1,1.017-1.536,1.441,1.441,0,0,1,.9-.324.9.9,0,0,1,.348.073,3.442,3.442,0,0,0,2.541.139.4.4,0,0,0,.088-.036,1,1,0,0,1,.835-.141,1.717,1.717,0,0,1,.887.56,4.936,4.936,0,0,1,.946,1.974,15.862,15.862,0,0,1,.5,3.095C-147.869,360.782-147.837,361.358-147.8,361.976Z" transform="translate(164.278 -345.676)" fill="#039511"/>
      <path id="Path_3800" data-name="Path 3800" d="M-227.856,244.809a3.088,3.088,0,0,1-1.694-.469,2.147,2.147,0,0,1-.923-1.98,16.228,16.228,0,0,1,.216-2.136,2.126,2.126,0,0,1,1.823-1.658,3.46,3.46,0,0,1,1.77.248,2.169,2.169,0,0,1,1.342,2.613,14.652,14.652,0,0,1-.5,1.753,2.214,2.214,0,0,1-1.526,1.545A4.241,4.241,0,0,1-227.856,244.809Z" transform="translate(233.088 -238.538)" fill="#039511"/>
      <path id="Path_3801" data-name="Path 3801" d="M-145.6,285.309c.156-.175.312-.349.467-.525a.838.838,0,0,0,.176-.867,4.009,4.009,0,0,1-.216-1.572,2.119,2.119,0,0,1,1.813-1.943,2.267,2.267,0,0,1,2.694,2.144,5.6,5.6,0,0,1,.03.837.888.888,0,0,0,.417.824c.178.12.36.234.566.367-.271.076-.521.15-.773.216a2.087,2.087,0,0,0-.842.412,2.538,2.538,0,0,1-1.278.594,2.549,2.549,0,0,1-1.5-.307,1.128,1.128,0,0,0-.43-.119c-.372-.017-.746-.005-1.118-.005Z" transform="translate(154.699 -277.167)" fill="#039511"/>
      <path id="Path_3802" data-name="Path 3802" d="M-198,425.765c.1-.51.158-.985.293-1.436a.84.84,0,0,1,.916-.674c.173.018.34.12.512.126a1.957,1.957,0,0,0,.688-.07.794.794,0,0,1,.943.271,2.3,2.3,0,0,1,.359,1.149c.022.2.022.4.033.634Z" transform="translate(203.096 -409.502)" fill="#039511"/>
      <path id="Path_3803" data-name="Path 3803" d="M-189.221,383.976a1.173,1.173,0,0,1,.373-1.086,1.6,1.6,0,0,1,1.785-.012.931.931,0,0,1,.378.775,7.681,7.681,0,0,1-.081.985,1.085,1.085,0,0,1-1.223.944,1.1,1.1,0,0,1-1.169-1.058C-189.185,384.342-189.2,384.159-189.221,383.976Z" transform="translate(194.993 -371.601)" fill="#039511"/>
    </g>
  </g>
</svg>
