<svg id="Group_2483" data-name="Group 2483" xmlns="http://www.w3.org/2000/svg" width="50" height="50" viewBox="0 0 50 50">
  <circle id="Ellipse_46" data-name="Ellipse 46" cx="25" cy="25" r="25" transform="translate(0)" fill="#d10a11"/>
  <g id="Group_272" data-name="Group 272" transform="translate(12.859 11.428)">
    <path id="Path_3488" data-name="Path 3488" d="M-473.511,361.748a19.4,19.4,0,0,0,6.728-1.173,12.1,12.1,0,0,0,1.842-.971,1.792,1.792,0,0,0,.8-1.869,10.142,10.142,0,0,0-2.872-6.254,1.093,1.093,0,0,1-.32-1.16,1.079,1.079,0,0,1,.855-.759,1.164,1.164,0,0,1,1.066.426,11.432,11.432,0,0,1,2.2,3.086,12.742,12.742,0,0,1,1.271,4.8,3.906,3.906,0,0,1-1.824,3.582,11.5,11.5,0,0,1-4.447,1.875,27.6,27.6,0,0,1-8.113.534,18.822,18.822,0,0,1-6.8-1.708,8.363,8.363,0,0,1-1.55-1,3.632,3.632,0,0,1-1.423-3.217,12.151,12.151,0,0,1,3.416-7.907,1.068,1.068,0,0,1,1.894.3,1.16,1.16,0,0,1-.338,1.247,9.421,9.421,0,0,0-2.385,4.179,19.825,19.825,0,0,0-.38,2.118,1.694,1.694,0,0,0,.717,1.645,8.766,8.766,0,0,0,2.878,1.4A20.8,20.8,0,0,0-473.511,361.748Z" transform="translate(486.112 -335.385)" fill="#febaba"/>
    <path id="Path_3489" data-name="Path 3489" d="M-414.293,143.37a7.743,7.743,0,0,1,7.647,7.693,7.751,7.751,0,0,1-7.809,7.68,7.8,7.8,0,0,1-7.56-7.691A7.711,7.711,0,0,1-414.293,143.37Zm-.024,2.2a5.6,5.6,0,0,0-5.5,5.411,5.5,5.5,0,0,0,5.536,5.563,5.518,5.518,0,0,0,5.445-5.442A5.558,5.558,0,0,0-414.317,145.566Z" transform="translate(426.415 -143.37)" fill="#febaba"/>
  </g>
</svg>
