<svg xmlns="http://www.w3.org/2000/svg" width="50" height="50" viewBox="0 0 50 50">
  <g id="Group_2488" data-name="Group 2488" transform="translate(-32 -1618)">
    <circle id="Ellipse_50" data-name="Ellipse 50" cx="25" cy="25" r="25" transform="translate(32 1618)" fill="#d10a11"/>
    <g id="Group_282" data-name="Group 282" transform="translate(42.001 1629.429)">
      <path id="Path_3767" data-name="Path 3767" d="M-534.519,174.674c.142-.624.279-1.249.427-1.872.41-1.723.829-3.443,1.235-5.167a2.03,2.03,0,0,0-.665-2.13c-1.7-1.48-3.417-2.948-5.122-4.425a1.957,1.957,0,0,1-.628-2.233,2.046,2.046,0,0,1,1.884-1.364c1.628-.12,3.254-.268,4.88-.4.559-.047,1.118-.1,1.678-.137a2.032,2.032,0,0,0,1.875-1.338q1.282-3.089,2.568-6.175a1.949,1.949,0,0,1,1.5-1.26,1.961,1.961,0,0,1,2.243,1.179c.624,1.46,1.229,2.929,1.842,4.394.236.564.492,1.12.7,1.692a2.217,2.217,0,0,0,2.15,1.509c2.188.159,4.373.347,6.558.544a1.869,1.869,0,0,1,1.678,1.362,1.857,1.857,0,0,1-.545,2.116c-1.012.9-2.052,1.779-3.079,2.667-.7.607-1.41,1.211-2.109,1.823a2.062,2.062,0,0,0-.685,2.179q.775,3.221,1.546,6.442a2.021,2.021,0,0,1-1.692,2.565,1.975,1.975,0,0,1-1.367-.328c-1.862-1.117-3.735-2.217-5.585-3.353a2.2,2.2,0,0,0-2.542.01c-1.849,1.158-3.718,2.283-5.588,3.408a2.018,2.018,0,0,1-3.078-1.268,3.69,3.69,0,0,1-.047-.424Z" transform="translate(539.398 -148.127)" fill="#febaba"/>
    </g>
  </g>
</svg>
