<svg xmlns="http://www.w3.org/2000/svg" width="25.689" height="35" viewBox="0 0 25.689 35">
  <g id="Group_407" data-name="Group 407" transform="translate(418.107 -107.301)">
    <path id="Path_3786" data-name="Path 3786" d="M-400.3,123.478a13.214,13.214,0,0,1,4.314,2.721l-1.483,1.574c-.255-.211-.493-.417-.741-.61a10.782,10.782,0,0,0-7.374-2.346,10.907,10.907,0,0,0-10.21,9.315,12.649,12.649,0,0,0-.126,1.665c-.017,1.422-.006,2.845-.006,4.306h8.728v2.2h-9.675a1.111,1.111,0,0,1-1.237-1.246q0-2.682,0-5.365a13.12,13.12,0,0,1,8.2-12.113c.073-.03.146-.061.246-.1a8.694,8.694,0,0,1-4.061-7.61,8.313,8.313,0,0,1,2.609-6.039,8.718,8.718,0,0,1,12.6.346A8.8,8.8,0,0,1-400.3,123.478Zm1.875-7.417a6.569,6.569,0,0,0-6.548-6.569,6.568,6.568,0,0,0-6.577,6.539,6.57,6.57,0,0,0,6.565,6.586A6.571,6.571,0,0,0-398.422,116.062Z" transform="translate(0 0)" fill="#707070"/>
    <path id="Path_3787" data-name="Path 3787" d="M-207.487,447c-.5,0-1,0-1.5,0a1.088,1.088,0,0,1-1.132-1.144c0-.991,0-1.981,0-2.972a1.148,1.148,0,0,1,.344-.86q3.083-3.077,6.167-6.152a1.037,1.037,0,0,1,1.528-.015q1.572,1.544,3.116,3.116a1.033,1.033,0,0,1-.009,1.5q-3.08,3.1-6.186,6.181a1.448,1.448,0,0,1-.82.329A14.273,14.273,0,0,1-207.487,447Zm4.627-8.817q-2.489,2.5-4.95,4.967a.35.35,0,0,0-.12.192c-.01.484-.006.969-.006,1.474.439,0,.836-.012,1.232,0a.653.653,0,0,0,.534-.22q2.33-2.35,4.673-4.687c.061-.061.117-.128.168-.184Z" transform="translate(-193.768 -305.793)" fill="#707070"/>
  </g>
</svg>
