<svg xmlns="http://www.w3.org/2000/svg" width="25.04" height="25" viewBox="0 0 25.04 25">
  <g id="Group_407" data-name="Group 407" transform="translate(472.665 -152.421)">
    <path id="Path_3773" data-name="Path 3773" d="M-472.649,177.421c-.007-.145-.016-.238-.016-.331q0-11.034.009-22.069a2.476,2.476,0,0,1,2.015-2.551,3.079,3.079,0,0,1,.613-.039c6.583,0,13.167.01,19.75-.011a2.553,2.553,0,0,1,2.6,2.036,3.39,3.39,0,0,1,.039.613c0,4.911-.018,9.821.013,14.732a2.605,2.605,0,0,1-2.673,2.666c-5.683-.026-11.367-.009-17.05-.015a.686.686,0,0,0-.538.218q-2.242,2.26-4.5,4.506C-472.459,177.25-472.537,177.317-472.649,177.421Zm20-19.971h-15v2.472h15Zm0,3.756h-15v2.474h15Zm-15.01,6.252h.38q3.812,0,7.624,0c.661,0,1.321-.027,1.982-.041q.016-.979.031-1.957c0-.163,0-.326,0-.492h-10.018Z" transform="translate(0 0)" fill="#7a7a7a"/>
  </g>
</svg>
