<svg xmlns="http://www.w3.org/2000/svg" width="50" height="50" viewBox="0 0 50 50">
  <g id="Group_2490" data-name="Group 2490" transform="translate(-32 -1681)">
    <circle id="Ellipse_52" data-name="Ellipse 52" cx="25" cy="25" r="25" transform="translate(32 1681)" fill="#d10a11"/>
    <g id="Group_286" data-name="Group 286" transform="translate(43.43 1691.713)">
      <path id="Path_3770" data-name="Path 3770" d="M-530.284,190.869q-5.183,0-10.367,0a3.781,3.781,0,0,1-3.006-1.3,3.813,3.813,0,0,1-.912-2.623q.008-9.442,0-18.884c0-.808-.015-1.618.033-2.424a3.693,3.693,0,0,1,3.289-3.3c.272-.019.545-.031.817-.031q10.246,0,20.491,0a3.738,3.738,0,0,1,3.432,1.881,3.666,3.666,0,0,1,.5,1.938q0,10.473,0,20.946a3.686,3.686,0,0,1-3.066,3.738,4.832,4.832,0,0,1-.935.064Q-525.146,190.873-530.284,190.869Zm5.529-8.885v0c.7,0,1.394.012,2.091-.008a1,1,0,0,0,.522-.179,1.221,1.221,0,0,0,.288-1.625q-.952-1.686-1.923-3.36a.433.433,0,0,1,.006-.513c.4-.665.783-1.341,1.171-2.013.282-.489.585-.968.836-1.472a1.2,1.2,0,0,0-1.027-1.708c-1.344.007-2.687,0-4.031.013a.424.424,0,0,1-.427-.249c-.612-1.079-1.233-2.152-1.855-3.225a1.27,1.27,0,0,0-2.348-.011q-.949,1.635-1.887,3.276a.373.373,0,0,1-.378.218c-1.344-.009-2.687-.016-4.031,0a1.208,1.208,0,0,0-.638.211,1.2,1.2,0,0,0-.338,1.633q.979,1.688,1.982,3.361a.43.43,0,0,1,.009.513c-.642,1.084-1.263,2.181-1.9,3.268a1.547,1.547,0,0,0-.2.894,1.69,1.69,0,0,0,.577.993c.1.118.393.094.6.1q1.97.011,3.94,0a.4.4,0,0,1,.4.232c.622,1.062,1.3,2.1,1.869,3.181a1.339,1.339,0,0,0,2.336-.011c.564-1.1,1.233-2.151,1.842-3.231a.474.474,0,0,1,.488-.291C-526.109,182-525.432,181.984-524.755,181.984Z" transform="translate(544.569 -162.3)" fill="#febaba"/>
      <path id="Path_3771" data-name="Path 3771" d="M-288.06,334.475a1.5,1.5,0,0,0,1.4.865l-1.4.817Z" transform="translate(303.614 -324.035)" fill="#febaba"/>
      <path id="Path_3772" data-name="Path 3772" d="M-288.179,435.246v-1.7l1.4.814A1.508,1.508,0,0,0-288.179,435.246Z" transform="translate(303.726 -417.101)" fill="#febaba"/>
      <path id="Path_3773" data-name="Path 3773" d="M-351.48,335.883l-1.4-.815a1.5,1.5,0,0,0,1.4-.884Z" transform="translate(364.502 -323.762)" fill="#febaba"/>
      <path id="Path_3774" data-name="Path 3774" d="M-352.832,434.4l1.4-.811v1.683A1.519,1.519,0,0,0-352.832,434.4Z" transform="translate(364.458 -417.135)" fill="#febaba"/>
      <path id="Path_3775" data-name="Path 3775" d="M-373.271,386.151a1.614,1.614,0,0,0-.006-1.617l1.411.809Z" transform="translate(383.664 -371.058)" fill="#febaba"/>
      <path id="Path_3776" data-name="Path 3776" d="M-266.557,384.717a1.656,1.656,0,0,0,.009,1.6l-1.4-.8Z" transform="translate(284.719 -371.23)" fill="#febaba"/>
    </g>
  </g>
</svg>
