<svg xmlns="http://www.w3.org/2000/svg" width="25.842" height="29.534" viewBox="0 0 25.842 29.534">
  <path id="book_1_" data-name="book (1)" d="M24.958,0H4.653A4.648,4.648,0,0,0,.007,4.585L0,4.576v20.3a4.654,4.654,0,0,0,4.652,4.653H20.343a1.814,1.814,0,0,0,1.807-1.846V8.306a.891.891,0,0,0-.884-.923H4.653a2.746,2.746,0,0,1-2.808-2.73A2.81,2.81,0,0,1,4.653,1.846H24V23.073a.957.957,0,0,0,.962.923.891.891,0,0,0,.884-.923V.923A.891.891,0,0,0,24.958,0ZM4.653,9.229H20.306l.037,18.459H4.653A2.81,2.81,0,0,1,1.846,24.88V8.327A4.721,4.721,0,0,0,4.653,9.229Z" fill="#bcc0d7"/>
</svg>
