<svg xmlns="http://www.w3.org/2000/svg" width="26.786" height="29.534" viewBox="0 0 26.786 29.534">
  <g id="calender_1_" data-name="calender (1)" transform="translate(-2.25 -1.25)">
    <path id="Path_1" data-name="Path 1" d="M11.522,1.25a1.03,1.03,0,0,1,1.03,1.03V4.012C13.472,4,14.493,4,15.628,4h.03c1.135,0,2.156,0,3.075.015V2.28a1.03,1.03,0,0,1,2.06,0v1.8a9.086,9.086,0,0,1,4.986,1.421,7.9,7.9,0,0,1,1.747,1.747,8,8,0,0,1,1.339,4.006c.17,1.569.17,3.546.17,6.069v.078c0,1.593,0,2.963-.04,4.14-.088,2.573-.367,4.465-1.468,5.981a7.9,7.9,0,0,1-1.747,1.747c-1.516,1.1-3.408,1.38-5.981,1.468-1.178.04-2.548.04-4.141.04h-.077c-2.523,0-4.5,0-6.069-.17a8,8,0,0,1-4.006-1.339,7.9,7.9,0,0,1-1.747-1.747A8,8,0,0,1,2.42,23.522c-.17-1.569-.17-3.546-.17-6.069v-.124c0-2.523,0-4.5.17-6.069A8,8,0,0,1,3.758,7.253,7.9,7.9,0,0,1,5.506,5.506a9.085,9.085,0,0,1,4.986-1.421V2.28A1.03,1.03,0,0,1,11.522,1.25Zm-1.03,4.9A6.951,6.951,0,0,0,6.717,7.173,5.838,5.838,0,0,0,5.425,8.464a6,6,0,0,0-.957,3.017c-.157,1.445-.158,3.311-.158,5.909s0,4.464.158,5.909a6,6,0,0,0,.957,3.017,5.837,5.837,0,0,0,1.292,1.292,6,6,0,0,0,3.017.957c1.445.157,3.311.158,5.909.158,1.165,0,2.187,0,3.093-.015a10.733,10.733,0,0,1,.095-1.564A7.9,7.9,0,0,1,25.4,20.578a10.734,10.734,0,0,1,1.564-.095c.015-.907.015-1.928.015-3.093,0-2.6,0-4.464-.158-5.909a6,6,0,0,0-.957-3.017,5.837,5.837,0,0,0-1.292-1.292A6.951,6.951,0,0,0,20.794,6.15V6.4a1.03,1.03,0,0,1-2.06,0V6.073c-.906-.015-1.926-.015-3.091-.015s-2.185,0-3.091.015V6.4a1.03,1.03,0,0,1-2.06,0Zm16.391,16.4a8.145,8.145,0,0,0-1.164.068,5.838,5.838,0,0,0-4.853,4.853,8.146,8.146,0,0,0-.068,1.164,6.946,6.946,0,0,0,3.771-1.022,5.835,5.835,0,0,0,1.292-1.292A6.945,6.945,0,0,0,26.883,22.546Z" fill="#bcc0d7" fill-rule="evenodd"/>
    <path id="Path_2" data-name="Path 2" d="M8.747,9.374A1.374,1.374,0,1,1,7.374,8,1.374,1.374,0,0,1,8.747,9.374Zm0,5.495a1.374,1.374,0,1,1-1.374-1.374A1.374,1.374,0,0,1,8.747,14.868Zm6.868-5.495A1.374,1.374,0,1,1,14.242,8,1.374,1.374,0,0,1,15.616,9.374Zm0,5.495a1.374,1.374,0,1,1-1.374-1.374A1.374,1.374,0,0,1,15.616,14.868Zm0,5.495a1.374,1.374,0,1,1-1.374-1.374A1.374,1.374,0,0,1,15.616,20.363ZM22.484,9.374A1.374,1.374,0,1,1,21.11,8,1.374,1.374,0,0,1,22.484,9.374Zm0,5.495a1.374,1.374,0,1,1-1.374-1.374A1.374,1.374,0,0,1,22.484,14.868ZM8.747,20.363a1.374,1.374,0,1,1-1.374-1.374A1.374,1.374,0,0,1,8.747,20.363Z" transform="translate(1.401 2.522)" fill="#bcc0d7"/>
  </g>
</svg>
