<svg xmlns="http://www.w3.org/2000/svg" width="29.101" height="29.101" viewBox="0 0 29.101 29.101">
  <path id="chat-bubble_1_" data-name="chat-bubble (1)" d="M26.736,2H6.365A4.365,4.365,0,0,0,2,6.365v14.55a4.365,4.365,0,0,0,4.365,4.365H23.229l5.384,5.4a1.455,1.455,0,0,0,1.033.422,1.222,1.222,0,0,0,.553-.116,1.455,1.455,0,0,0,.9-1.339V6.365A4.365,4.365,0,0,0,26.736,2Zm1.455,24.139-3.332-3.347a1.455,1.455,0,0,0-1.033-.422H6.365A1.455,1.455,0,0,1,4.91,20.916V6.365A1.455,1.455,0,0,1,6.365,4.91H26.736a1.455,1.455,0,0,1,1.455,1.455Z" transform="translate(-2 -2)" fill="#bcc0d7"/>
</svg>
