<svg xmlns="http://www.w3.org/2000/svg" width="31.067" height="31.067" viewBox="0 0 31.067 31.067">
  <path id="dashboard_6_" data-name="dashboard (6)" d="M12.493,3H7.315a4.315,4.315,0,1,0,0,8.63h5.178a4.315,4.315,0,1,0,0-8.63Zm0,6.9H7.315a2.589,2.589,0,1,1,0-5.178h5.178a2.589,2.589,0,0,1,0,5.178Zm0,5.178H7.315A4.315,4.315,0,0,0,3,19.4V29.752a4.315,4.315,0,0,0,4.315,4.315h5.178a4.315,4.315,0,0,0,4.315-4.315V19.4A4.315,4.315,0,0,0,12.493,15.082Zm2.589,14.671a2.589,2.589,0,0,1-2.589,2.589H7.315a2.589,2.589,0,0,1-2.589-2.589V19.4a2.589,2.589,0,0,1,2.589-2.589h5.178A2.589,2.589,0,0,1,15.082,19.4Zm14.671-4.315H24.575a4.315,4.315,0,0,0,0,8.63h5.178a4.315,4.315,0,1,0,0-8.63Zm0,6.9H24.575a2.589,2.589,0,0,1,0-5.178h5.178a2.589,2.589,0,0,1,0,5.178ZM29.752,3H24.575A4.315,4.315,0,0,0,20.26,7.315V17.671a4.315,4.315,0,0,0,4.315,4.315h5.178a4.315,4.315,0,0,0,4.315-4.315V7.315A4.315,4.315,0,0,0,29.752,3Zm2.589,14.671a2.589,2.589,0,0,1-2.589,2.589H24.575a2.589,2.589,0,0,1-2.589-2.589V7.315a2.589,2.589,0,0,1,2.589-2.589h5.178a2.589,2.589,0,0,1,2.589,2.589Z" transform="translate(-3 -3)" fill="#6888f4"/>
</svg>
