<svg xmlns="http://www.w3.org/2000/svg" width="29.534" height="29.534" viewBox="0 0 29.534 29.534">
  <g id="edit_9_" data-name="edit (9)" transform="translate(-2.4 -2.4)">
    <path id="Path_4" data-name="Path 4" d="M6.553,31.934A4.153,4.153,0,0,1,2.4,27.781V6.553A4.153,4.153,0,0,1,6.553,2.4H19.936a1.384,1.384,0,1,1,0,2.769H6.553A1.384,1.384,0,0,0,5.169,6.553V27.781a1.384,1.384,0,0,0,1.384,1.384H27.781a1.384,1.384,0,0,0,1.384-1.384V14.86a1.384,1.384,0,0,1,2.769,0V27.781a4.153,4.153,0,0,1-4.153,4.153Zm3.032-8,.975-5.711a.022.022,0,0,1,0-.012l6.522-6.522,8.486-8.479A2.758,2.758,0,0,1,27.525,2.4a2.787,2.787,0,0,1,1.972.815l.811.811.815.815a2.769,2.769,0,0,1,0,3.915l-8.485,8.486-6.519,6.522a.025.025,0,0,1-.012,0l-5.711.974a.714.714,0,0,1-.12.011.7.7,0,0,1-.691-.814Zm9.458-10.283-5.907,5.907L12.8,21.528l1.969-.337,5.907-5.907L29.165,6.8l-.815-.815-.815-.815Z" transform="translate(0 0)" fill="#bcc0d7"/>
  </g>
</svg>
