<svg xmlns="http://www.w3.org/2000/svg" width="46.928" height="46.928" viewBox="0 0 46.928 46.928">
  <g id="Group_2478" data-name="Group 2478" transform="translate(515.98 -167.91)">
    <path id="Path_3755" data-name="Path 3755" d="M-515.98,191.366a23.476,23.476,0,0,1,23.471-23.456,23.473,23.473,0,0,1,23.457,23.47,23.476,23.476,0,0,1-23.522,23.457A23.48,23.48,0,0,1-515.98,191.366Zm9.542.024a13.938,13.938,0,0,0,13.9,13.906,13.936,13.936,0,0,0,13.943-13.915,13.933,13.933,0,0,0-13.927-13.928A13.933,13.933,0,0,0-506.438,191.39Zm12.71,16.246a16.357,16.357,0,0,1-9.777-4.21l-3.375,3.378a21.017,21.017,0,0,0,13.152,5.61Zm13.252-27.26a16.5,16.5,0,0,1,2.929,4.525,16.534,16.534,0,0,1,1.294,5.25h4.78A21.015,21.015,0,0,0-477.1,177Zm-1.409,23.368a16.269,16.269,0,0,1-9.407,3.892v4.754a20.453,20.453,0,0,0,12.76-5.3Zm-31.655-13.586h4.762a16.237,16.237,0,0,1,3.861-9.378l-3.362-3.362A20.633,20.633,0,0,0-513.541,190.158Zm10.459-11.207a16.333,16.333,0,0,1,9.336-3.843V170.33a21,21,0,0,0-12.719,5.242Zm26.387,26.355a20.991,20.991,0,0,0,5.219-12.714h-4.782a16.282,16.282,0,0,1-3.837,9.352ZM-491.3,175.114a16.293,16.293,0,0,1,9,3.543l3.376-3.4a20.936,20.936,0,0,0-12.38-4.926Zm-22.255,17.479a20.96,20.96,0,0,0,4.941,12.39l3.385-3.39a16.321,16.321,0,0,1-3.549-9Z" transform="translate(0 0)" fill="#7a7a7a"/>
    <path id="Path_3756" data-name="Path 3756" d="M-382.89,294.568c1.427.979,2.844,1.924,4.224,2.921a1.706,1.706,0,0,1,.63.934c.144.68-.327,1.208-1.084,1.331-1.142.185-2.287.348-3.431.519-.474.071-.952.123-1.42.222a.417.417,0,0,0-.248.317c.08,1.372.184,2.742.282,4.113.021.3.04.594.059.892a1.136,1.136,0,0,1-.672,1.17,1.14,1.14,0,0,1-1.367-.245l-3.545-3.267c-.084-.078-.172-.152-.306-.27-.623.57-1.243,1.133-1.858,1.7s-1.236,1.152-1.857,1.725a1.221,1.221,0,0,1-1.525.346,1.262,1.262,0,0,1-.634-1.385c.127-1.534.215-3.072.335-4.607.027-.345-.051-.48-.434-.531-1.556-.205-3.107-.453-4.658-.7a1.191,1.191,0,0,1-1.095-.932,1.182,1.182,0,0,1,.607-1.345q1.881-1.294,3.767-2.581c.148-.1.292-.21.472-.339l-1.54-2.68c-.346-.6-.686-1.207-1.036-1.807a1.19,1.19,0,0,1,.044-1.436,1.182,1.182,0,0,1,1.388-.375c1.484.454,2.97.9,4.446,1.377.393.127.57.082.724-.333.536-1.439,1.124-2.858,1.677-4.29a1.277,1.277,0,0,1,1.164-.928,1.251,1.251,0,0,1,1.2.941c.578,1.458,1.156,2.917,1.718,4.381.112.291.228.363.543.262,1.462-.466,2.939-.887,4.4-1.353a1.286,1.286,0,0,1,1.573.326,1.308,1.308,0,0,1-.058,1.61C-381.238,291.68-382.054,293.115-382.89,294.568Zm-6.867-6.007c-.07.158-.092.2-.11.248q-.5,1.266-1,2.533c-.418,1.054-.879,1.273-1.968.938l-2.871-.884c.582,1.016,1.113,1.929,1.629,2.849a1.188,1.188,0,0,1-.388,1.731c-.389.281-.792.542-1.187.814-.469.322-.937.646-1.513,1.043,1.114.167,2.086.319,3.06.458a1.26,1.26,0,0,1,1.275,1.492c-.006.248-.04.495-.057.743-.052.776-.1,1.552-.163,2.457l2.263-2.1a1.253,1.253,0,0,1,2.027-.007c.743.673,1.478,1.354,2.29,2.1-.074-1.114-.145-2.116-.205-3.118-.062-1.029.3-1.433,1.336-1.574.954-.13,1.9-.289,2.98-.455-.9-.618-1.683-1.16-2.471-1.7-.955-.654-1.065-1.121-.495-2.114l1.5-2.614-2.891.885c-1.055.324-1.53.1-1.934-.923Z" transform="translate(-103.069 -104.625)" fill="#7a7a7a"/>
  </g>
</svg>
