<svg xmlns="http://www.w3.org/2000/svg" width="26.261" height="35" viewBox="0 0 26.261 35">
  <g id="Group_653" data-name="Group 653" transform="translate(387.281 -121.587)">
    <path id="Path_3878" data-name="Path 3878" d="M-368.786,152.21a5.517,5.517,0,0,1-5.249,4.376,5.528,5.528,0,0,1-5.487-4.376h-6.512a1.112,1.112,0,0,1-1.241-1.243c0-1-.018-2.006.011-3.007a1.719,1.719,0,0,1,.25-.824c.555-.887,1.159-1.743,1.721-2.625a1.3,1.3,0,0,0,.2-.656c.013-3.007-.035-6.016.018-9.022a10.718,10.718,0,0,1,6.549-10.133,11.728,11.728,0,0,1,1.868-.625c.237-.067.326-.136.332-.4a2.174,2.174,0,0,1,2.182-2.091,2.177,2.177,0,0,1,2.175,2.1c.006.236.067.321.308.376a10.9,10.9,0,0,1,8.318,9.045,13.44,13.44,0,0,1,.125,1.768c.012,3.007,0,6.015.014,9.022a1.166,1.166,0,0,0,.181.593c.559.871,1.159,1.716,1.7,2.6a1.947,1.947,0,0,1,.281.917c.035.99.014,1.982.013,2.973a1.111,1.111,0,0,1-1.249,1.234h-6.509Zm5.574-2.2c0-.55.013-1.063-.007-1.574a1.033,1.033,0,0,0-.153-.5q-.845-1.3-1.721-2.585a1.722,1.722,0,0,1-.312-1.02q.014-4.716,0-9.432a11.219,11.219,0,0,0-.132-1.664,8.755,8.755,0,0,0-10.291-7.119,8.757,8.757,0,0,0-7.074,8.675q0,4.135,0,8.27v.4h10.912v2.182h-.433q-5.331,0-10.663,0a.509.509,0,0,0-.5.252c-.441.69-.9,1.366-1.356,2.049a.6.6,0,0,0-.139.266c-.012.6-.007,1.2-.007,1.8Zm-14,2.207a3.242,3.242,0,0,0,3.26,2.179,3.191,3.191,0,0,0,2.847-2.179Z" transform="translate(0 0)" fill="#707070"/>
    <path id="Path_3879" data-name="Path 3879" d="M-130.989,444v-2.141h2.142V444Z" transform="translate(-238.771 -298.383)" fill="#707070"/>
  </g>
</svg>
