<svg id="Group_2467" data-name="Group 2467" xmlns="http://www.w3.org/2000/svg" width="26.001" height="26.086" viewBox="0 0 26.001 26.086">
  <path id="Path_4113" data-name="Path 4113" d="M-429.729,149.43l.725-.356a5.394,5.394,0,0,1-1.807-4.684,5.321,5.321,0,0,1,1.95-3.6,5.585,5.585,0,0,1,7.277.358,5.512,5.512,0,0,1-.254,7.931,8.724,8.724,0,0,1,4.7,5.414c-.558-.2-1.107-.439-1.68-.591a5.344,5.344,0,0,0-3.179.182.729.729,0,0,1-.454,0,5.425,5.425,0,0,0-7.3,4.185,5.338,5.338,0,0,0,1.5,4.795c.712.741,1.458,1.45,2.189,2.173.059.058.114.119.179.188a1.033,1.033,0,0,1-.759.267q-3.3,0-6.6,0c-2.8,0-5.609-.013-8.413.009a1.137,1.137,0,0,1-1.2-1.256,8.614,8.614,0,0,1,4.914-7.629c.058-.03.112-.067.172-.1a5.485,5.485,0,0,1,.01-7.987A5.491,5.491,0,0,1-429.729,149.43Z" transform="translate(442.855 -139.611)" fill="#fff"/>
  <path id="Path_4114" data-name="Path 4114" d="M-140.43,460.574a3.348,3.348,0,0,1,2.18.62.313.313,0,0,0,.453-.008,3.34,3.34,0,0,1,4.045.125,3.29,3.29,0,0,1,.765,3.879,3.841,3.841,0,0,1-.678.975c-1.161,1.193-2.346,2.363-3.525,3.538a1.078,1.078,0,0,1-1.661,0c-1.185-1.182-2.374-2.359-3.548-3.552a3.352,3.352,0,0,1-.333-4.379A2.984,2.984,0,0,1-140.43,460.574Z" transform="translate(158.664 -444.198)" fill="#fff"/>
</svg>
