<svg xmlns="http://www.w3.org/2000/svg" width="54.249" height="36.15" viewBox="0 0 54.249 36.15">
  <g id="Group_2610" data-name="Group 2610" transform="translate(398.417 -157.971)">
    <path id="Path_3753" data-name="Path 3753" d="M-354.5,166.673c.251-.117.429-.2.6-.283l5.717-2.854A2.611,2.611,0,0,1-344.182,166c.009,6.695-.016,13.39.014,20.085a2.672,2.672,0,0,1-4.061,2.466c-1.84-1.027-3.767-1.9-5.656-2.84-.175-.087-.353-.168-.582-.278-.074.856-.085,1.654-.219,2.431a7.6,7.6,0,0,1-7.187,6.215c-5.323.059-10.647.023-15.971.025-4.215,0-8.43-.053-12.643.016a7.828,7.828,0,0,1-7.837-6.579,9.093,9.093,0,0,1-.069-1.387c0-6.735.053-13.471-.024-20.205a7.859,7.859,0,0,1,6.537-7.872,9.587,9.587,0,0,1,1.446-.08c9.316,0,18.633.041,27.949-.024a7.848,7.848,0,0,1,7.86,6.547C-354.524,165.191-354.54,165.881-354.5,166.673Zm-27.155,9.354a3.843,3.843,0,0,0-3.889-3.853,3.913,3.913,0,0,0-3.849,3.864,3.914,3.914,0,0,0,3.89,3.885A3.844,3.844,0,0,0-381.65,176.027Z" transform="translate(0 0)" fill="#7a7a7a"/>
  </g>
</svg>
